<?xml version="1.0" standalone="no"?>
<!DOCTYPE svg PUBLIC "-//W3C//DTD SVG 20010904//EN"
 "http://www.w3.org/TR/2001/REC-SVG-20010904/DTD/svg10.dtd">
<svg version="1.0" xmlns="http://www.w3.org/2000/svg"
 width="152.000000pt" height="152.000000pt" viewBox="0 0 152.000000 152.000000"
 preserveAspectRatio="xMidYMid meet">
<metadata>
Created by potrace 1.14, written by Peter Selinger 2001-2017
</metadata>
<g transform="translate(0.000000,152.000000) scale(0.100000,-0.100000)"
fill="#000000" stroke="none">
<path d="M655 1433 c-60 -8 -181 -48 -245 -81 -151 -79 -263 -198 -335 -355
-132 -290 -73 -619 152 -844 40 -40 76 -73 80 -73 19 0 163 345 163 390 0 4
-36 7 -81 6 -93 -1 -106 3 -90 32 9 17 20 20 89 19 44 0 84 3 89 6 9 6 20 50
39 155 4 21 1 22 -58 22 -64 0 -148 -30 -148 -53 0 -7 -8 2 -19 18 -21 35 -77
85 -94 85 -32 1 33 26 118 47 11 3 194 6 407 7 385 1 387 2 411 24 13 12 30
22 39 22 20 0 85 -44 126 -87 55 -56 39 -63 -148 -63 -86 0 -159 -2 -162 -5
-3 -3 3 -39 12 -80 10 -41 15 -75 11 -75 -3 0 2 -6 11 -14 25 -18 69 -9 106
24 20 17 40 26 51 23 27 -7 91 -68 91 -87 0 -18 5 -18 -125 -18 -55 0 -103 -1
-106 -4 -18 -10 140 -404 162 -404 20 0 143 129 188 195 87 131 124 254 124
420 -1 212 -70 381 -219 532 -97 97 -212 164 -346 199 -59 15 -226 25 -293 17z"/>
<path d="M699 693 c-3 -56 0 -155 4 -160 7 -6 94 -6 104 0 7 4 10 136 4 170 0
4 -26 7 -56 7 -45 0 -55 -3 -56 -17z"/>
</g>
</svg>
