<?xml version="1.0" encoding="UTF-8"?>
<svg id="Layer_2" data-name="Layer 2" xmlns="http://www.w3.org/2000/svg" viewBox="0 0 231.75 206.48">
  <defs>
    <style>
      .cls-1 {
        fill: #e3e3dc;
        stroke-width: 0px;
      }

      .cls-2 {
        stroke-miterlimit: 10;
        stroke-width: .45px;
      }

      .cls-2, .cls-3 {
        fill: none;
        stroke: #e3e3dc;
      }

      .cls-3 {
        stroke-dasharray: 0 0 .75 4.5;
        stroke-linecap: round;
        stroke-linejoin: round;
        stroke-width: .75px;
      }
    </style>
  </defs>
  <g id="Layer_1-2" data-name="Layer 1">
    <g>
      <g>
        <path class="cls-2" d="M229.58,25.04c-1.89.26-3.6.51-5.3-.22-1.99-.86-3.78-4.01-2.51-6.1.37-.61.92-1.15,1.46-1.7,1.23-1.27,2.38-2.58,3.43-3.93.08-.11.17-.22.19-.34.02-.16-.1-.29-.22-.4-.15-.14-.3-.28-.45-.43-.07-.06-.14-.13-.26-.15-.16-.02-.33.07-.48.16-4.9,2.77-11.05,7.15-16.43,4.99-.55-.22-1.01-.54-1.52-.8-1.3-.65-2.92-.87-4.38-1.31-2.94-.89-4.82-2.65-7.03-4.27-4.21-3.09-6.49-7.55-11.24-10.26-1.26,1.06-.86,2.64-1.79,3.87-.52.68-1.46,1.29-1.47,2.01,0,.44.35.76.7,1.03.74.59,1.51,1.18,1.91,1.99,1.05,2.1-1.29,4.99-1.5,7.28-.22,2.34-1.44,5.1-3.36,7.22-.53.59-1.14,1.15-1.48,1.8-.27.52-.35,1.06-.42,1.59-.16,1.19-.33,2.38-.49,3.56-.04.32-.1.67-.4.93-.3.27-.76.36-1.17.43-1.69.29-3.39.58-5.08.87-.12.02-.24.04-.34.01-.16-.05-.21-.2-.26-.33-.27-.81-.97-1.46-1.91-1.79-1.9,1.33-3.04,2.12-3.31,4.07-.21,1.47.24,3.11-1.31,4.46-1.96,1.72-9.25,3.01-8.11,6.2.1.27.27.51.31.8.03.27-.06.57-.15.86-.16.49-.31.98-.47,1.48-.38,1.22,1.14,1.42,1.64,2.3.4.7.39,1.54.22,2.38-.18.9-.9,1.96-.79,2.83.15,1.15,1.63,1.82,2.57,2.54.2.15.45.32.76.25.37-.08.59-.42.75-.71.69-1.26,1.38-2.53,2.07-3.79,2.35-4.3,4.87-1,8.15-.88.68.03,1.47-.1,2.03-.55.34-.27.55-.63.9-.9.39-.3,1.02-.63.9-.98-.08-.23-3.74-.43-4.23-.59-.59-.18-1.42-.4-1.65-.91-.27-.6.59-1.44.01-1.94-.85-.74-2.95-.38-3.89-1.04-1.19-.84-2.21-4.04.85-4.73,2.13-.48,2.79,1.4,3.13,2.62.04.14.08.29.23.36.13.06.31.04.48.02.85-.1,1.71-.21,2.56-.31-.03,0,1.55-1.95,1.78-2.15.82-.69,1.8-1.27,2.84-1.67,1.67-.64,3.22-.54,4.88-.77,1.03-.15,2.08-.6,3.05-.41,2.75.54,2.63,3.89,4.96,4.91.66.29,1.46.39,2.15.63,2.07.73,2.99,2.65,4.93,3.55.53.25,1.49.27,1.76-.28.07-.14.06-.28.06-.42-.08-1.83-.65-4.44.7-6.34.77-1.08,2.59-2.31,3.55-3.13,2.07-1.76,4.11-4.04,6.51-5.51,2.47-1.51,5.25-.37,7.86-.9.4-.08.84-.22,1.12-.5.21-.22.29-.48.42-.73.43-.8,1.47-1.39,2.47-1.67s2.02-.31,3.03-.42c2.46-.26,4.98-1,7.29-2.12.26-.13.55-.28.67-.51.27-.51-.51-.78-.62-1.26-.43.05-.85.11-1.27.16Z"/>
        <path class="cls-2" d="M178.34,73.39c-.31-.62-.7-1.2-1.18-1.74-.66-.74-1.49-1.36-2.18-2.09-1.39-1.47-2.25-3.4-2.28-5.45-.03-1.87,1.92-4.09.93-5.79-.95-1.64-5.07-.59-7.14.05-.41.37-.4.91-.13,1.25s.75.51,1.21.68c.75.27,1.49.55,2.24.82.36.13.76.33.71.68-.02.12-.09.24-.16.36-.93,1.52-2.24,2.95-3.8,4.16-.41.32-1,.65-1.4.46-.22-.11-.27-.34-.32-.55-.35-1.65-.87-3.24-1.55-4.76-.1-.21-.24-.45-.55-.44-.16,0-.33.09-.48.18-2.01,1.12-3.19,2.73-4.88,4.12-1.55,1.27-3.49,2.53-4.37,4.17-.87,1.62-.06,2.16.95,3.12,1.54,1.47.99,2.3-1.22,3.91-1.04.75-3.39,2.03-2.97,3.15.21.58.87.91,1.52,1.16,2.11.8,3.27,2.87,2.36,5.09-.33.81-.9,1.58-1.46,2.34-1.25,1.7-2.86,3.47-3.86,5.24-.84,1.46-1.37,3.01-2.21,4.51-1.27,2.25-3.33,3.19-5.24,5.06-1.63,1.6-2.25,3.45-4.06,5.18-3.07,2.95-6.16,5.4-10,7.8-2.59,1.62-4.98,1.97-7.74,3.14-2.16.91-4.31,3.4-6.39,3.75-.36-1.03-1.9-1.84-1.3-3.15.22-.47.68-.87,1.13-1.25,1.7-1.44,3.4-2.88,5.11-4.31-.47-.08-.28-1.26-.72-1.2-1.55.22-3.12.82-4.45,1.69-2.65,1.74-4.12,4.34-5.23,6.82-1.73,3.87-3.09,7.42-7.95,9.73-1.44.68-3.87,1.8-4.33,3.21-.68,2.07,3.31,1.7.68,3.85-2.26,1.84-4.52,3.69-6.78,5.53-.36.29-.75.6-1.2.74-1.93.57-2.67-3.1-2.68-4.11,0-.44,0-.95-.4-1.18-.3-.17-.74-.13-1.14-.09-4.21.45-8.46,1.22-12.68,2.31-.66.17-1.33.35-1.95.67-.63.32-1.17.77-1.71,1.2-1.72,1.34-3.8,2.86-5.97,3.4-2.08.52-2.06.03-2.78-1.1-.61-.96-.93-2.3-2.61-2.02-1.32.22-2.71,1.52-3.63,2.32-4.14,3.61-8.81,6.84-13.8,9.57-2.5,1.37-5.07,2.61-7.71,3.71-1.13.47-2.33,1.11-3.47,1.45s-2.31.33-3.46.76c-.2.08-.41.16-.58.29-.38.28-.47.74-.31,1.05s.49.53.85.69c1.22.56,2.74.71,4.17.97s2.87.66,3.66,1.59c.92,1.08,1.24,2.91,3.6,2.47,1.27-.24,2.01-1.24,2.62-2.11,1.19-1.69,2.21-5.26,4.91-5.93,1.45-.36,2.88-.04,3.84.66.48.35.91.81,1.61.83.48.02.99-.17,1.47-.37,3.27-1.34,6.53-3.13,9.9-3.41,2.14-.18,3.6-.24,5.56-1.51,1.23-.8,2.33-1.91,3.76-2.44,2.72-1,5.89,0,8.2.51,1.27.28,2.52.67,3.46,1.34,2.92,2.1-1.2,4.63-1.53,7.3-.22,1.77,1.14,3.09,2.44,4.25,1.17,1.04,2.34,2.09,3.51,3.13.38.34.8.69,1.4.75.82.07,1.75-.46,2.31-1.08s.84-1.35,1.17-2.05c.81-1.73,2.09-3.55,4.12-4.51.56-.26,1.18-.47,1.6-.88.44-.44.53-.99.73-1.5,1.45-3.67,8.49-2.48,7.46-6.25-.48-1.77-3.29-2.16-2.86-4.38.24-1.21,1.86-2.5,3.26-2.33,1.24.16,1.75,1.29,2.93,1.57.65.16,1.44.03,2.09.2s1.03.89.44,1.35c-.32.25-.79.31-1.08.57-.35.31-.25.77.07.98s.8.23,1.26.24c2.88.04,5.63-.54,8.51-.87,2.33-.27,4.49.12,6.56-1.62,1.28-1.07,1.64-2.72,3.62-3.12.87-.18,1.79.19,1.75.88,0,.14-.05.31.04.42.1.13.34.12.55.1,1.81-.21,3.65-1.48,4.27-2.95.25-.6.31-1.21.61-1.8.46-.94,1.58-1.75,2.74-2.07,1.18-.33,1.59.17,2.58.12,2.07-.12,3.25-1.79,4.1-3.17.69-1.12,3.91-5.69,5.56-5.72.73-.02.98.7.81,1.3-.95,3.36-3.72,7.21-7.17,9.66-.51.36-1.11.82-1.05,1.29.04.39.56.57,1.06.5s.98-.33,1.42-.6c2.24-1.38,4.34-3.06,5.98-4.91,1.53-1.73,3.07-3.45,4.6-5.18,1.28-1.44,2.62-3.01,2.79-4.61.24-2.3-2.01-4-1.6-6.32.17-.93.76-1.86,1.34-2.75,1.73-2.68,3.45-5.35,5.18-8.03.22-.35.45-.7.5-1.06.05-.38-.11-.72-.25-1.05-.81-1.92-1.15-4.07-.6-6.29.59-2.36,2.47-5.66,5.7-6.44.62-.15,1.29-.23,1.83-.57.86-.55.98-1.54.73-2.25s-.79-1.32-.89-2.08c-.2-1.53,1.34-3.15,2.76-4.51,1.29-1.23,2.57-2.47,3.86-3.7.62-.59,1.26-1.21,1.56-1.91.21-.48.24-.97.26-1.45.18-3.23.3-6.62-1.06-9.32Z"/>
        <path class="cls-2" d="M72.91,163.48c-.25-.13-.53-.25-.8-.36-1.57-.68-2.92-1.61-3.99-2.75-.2-.22-.41-.45-.76-.51-.27-.05-.57.01-.86.08-1.95.41-5.06.58-6.77,1.72-1.51,1.02-1.86,2.88-3.87,3.48-.41.12-.82.16-1.23.28-.69.21-1.33.64-2.03.76-1.13.18-1.9-.53-2.51-1.17-.07-.07-.14-.14-.24-.17-.09-.03-.2-.02-.31,0-.45.04-.91.08-1.36.11-1.31,2.4-4.36,6.11-7.15,7.69-.87.49-2.21.53-3.07.5.03.4-.7.93-.36,1.17.08.05.19.07.3.07.82.05,1.73-.12,2.49.05,2.98.68-1.66,5.33-3.01,6.5.17.43.35.86.52,1.29.66-.21,1.15-.72,1.7-1.13s1.36-.73,1.84-.46c.75.43-.19,1.66.21,2.34,1.19-.21,2.09-1.32,3.27-1.64.86-.23,1.96-.12,2.44-.78.57-.77-.63-1.49-.18-2.3.2-.36.67-.59,1.08-.81,2-1.06,3.19-2.36,4.69-3.82,1.31-1.27,3.42-2.04,5.21-2.02.93,0,1.78.31,2.37.79.32.26.73,1.65.94,1.71,1.1.35,2.7-.09,3.6-1.01.93-.94,1.06-2.16,1.92-3.14,1.02-1.16,2.76-1.7,4.25-2.43s3.02-2.14,2.53-3.25c-.16-.36-.49-.6-.88-.8Z"/>
        <path class="cls-2" d="M32.62,177.18c-.57-.73-2.51-1.43-2.66-2.32-.18-1.12,2.44-2.06,1.86-3.05-.1-.16-.29-.26-.48-.35-.74-.36-1.63-.73-2.59-.41-1.62.54-2.45.85-3.71.12-.78-.45-1.88-1.13-2.07-1.98-.15-.65.89-2.41-.79-2.2-.5.06-.96.36-1.44.56-1.43.6-3.11.39-4.39,1.24-.64.42-1.03,1.03-1.43,1.6s-.88,1.17-1.58,1.5-1.66.23-1.77-.33c-2.17,2.25-5.79,3.29-8.89,3.26-.47,0-.96-.03-1.44.11s-.97.51-1.01.9c-.23,2.5,2.58,3.39,4.38,4.68.57.41,1.34,1.32.14,1.95s-1.3-.77-2.26-.5c-.45.13-.66.61-.54.97.41,1.19,2.37,1.21.17,2.87.02.42.73.51,1.23.27s.85-.66,1.2-1.05c.49-.53,1.06-1.05,1.77-1.36s1.57-.36,2.05,0c.29.22.41.56.68.8.35.31.97.41,1.56.25,1.98-.54.67-1.75-.12-2.24-.31-.19-.64-.4-.73-.72-.27-.91,1.81-3.6,3.04-2.7.98.71.6,2.65.82,3.7.22,1.05.49,1.53-.15,2.5-1.68,2.57-.59,4.5-3.84,6.7-1.49,1.01-4.5,2.2-3.87,3.93.16.44.55.76.91,1.08.36.32.71.68.77,1.15.06.46-1.06,2.12-1.52,2.54-.3.28-.73.45-1.04.72-.52.44-.65,1.1-.39,1.55s.86.7,1.51.74c.39.02.79-.02,1.2-.06,1.15-.12,2.3-.23,3.45-.35.24-.02.5-.06.69-.21.32-.26.17-.65-.13-.81s-.7-.19-.98-.37c-1.13-.71,1.13-3.74,2.61-3.31.59.17.78.84.38,1.35-.1.13-.23.25-.32.39-.38.58.17,1.09.35,1.64.41,1.19-.64,1.91-1.57,2.78-.58.54-1.76,1.25,0,1.55.56.1,1.21-.23,1.7-.61,1.42-1.12,3.47-2.45,4.51-3.79.79-1.02.71-2.17,1.17-3.25,1.04.42,1.18,1.53,1.94,2.16.19.16.57.1.87-.02.82-.33,1.39-1.04,1.66-1.72s.3-1.37.42-2.05c.38-2.17,1.31-4.51,2.05-6.69.24-.71.49-1.43.9-2.11.42-.7,1-1.35,1.57-1.99,1.57-1.76,3.15-3.53,4.72-5.29,1.17-1.31,1.05-1.62.31-2.51-.27-.33-.56-.76-.89-1.17Z"/>
      </g>
      <path class="cls-1" d="M25.94,174.19c-.07.15-.16.31-.3.39-.04.03-.09.05-.15.06-.2.03-.38-.11-.54-.25-1-.86-1.9-1.82-2.82-2.76-.06-.06-.15-.14-.23-.11-.07.02-.1.11-.12.18-.22.72-.53,1.43-.78,2.14-.09.25-.56.99-.54,1.19.03.34.89.61.88.8.14-1.84,3.25.72,3.38,1.82.06.5-.02,1.01-.1,1.51-.18,1.17-.61,2.28.55,3.02.72.46,1.68.56,2.51.7,1.01.17,2.02.33,3.04.5.07.01.15.02.22.04.76-.85,1.52-1.7,2.28-2.55,1.17-1.31,1.05-1.62.31-2.51-.27-.33-.56-.76-.89-1.17-.57-.73-2.51-1.43-2.66-2.32-.18-1.12,2.44-2.06,1.86-3.05-.1-.16-.29-.26-.48-.35-.74-.36-1.63-.73-2.59-.41-1.04.35-1.75.6-2.46.54.12.88.02,1.77-.36,2.61Z"/>
      <g>
        <line class="cls-3" x1="27.26" y1="177.66" x2="27.26" y2="109.38"/>
        <path class="cls-1" d="M27.26,90.73h0c-4.54,0-7.56,4.7-5.67,8.83l5.67,12.36,5.67-12.36c1.89-4.13-1.12-8.83-5.67-8.83ZM27.26,99.41c-1.1,0-2-.9-2-2s.9-2,2-2,2,.9,2,2-.9,2-2,2Z"/>
      </g>
    </g>
  </g>
</svg>