<svg id="Layer_1" data-name="Layer 1" xmlns="http://www.w3.org/2000/svg" viewBox="0 0 197.74 313.92"><defs><style>.cls-1{fill:none;stroke:#64645f;stroke-miterlimit:10;stroke-width:0.6px;}</style></defs><path class="cls-1" d="M51.52,70.25c20,0,36.24,38.71,36.24,86.47S71.54,243.8,51.52,243.8"/><path class="cls-1" d="M63.36,70.12c15,0,27.18,50.86,27.18,86.67s-12.17,87-27.18,87"/><path class="cls-1" d="M75.2,70.25c10,0,18.11,62.75,18.11,86.62S85.2,243.8,75.2,243.8"/><path class="cls-1" d="M87,70.25c5,0,9.06,74.76,9.06,86.7s-4,86.7-9.06,86.7"/><line class="cls-1" x1="98.87" y1="70.25" x2="98.87" y2="243.8"/><path class="cls-1" d="M146.22,70.25c-20,0-36.24,38.71-36.24,86.47s16.23,87.08,36.24,87.08"/><path class="cls-1" d="M134.38,70.12c-15,0-27.18,50.86-27.18,86.67s12.17,87,27.18,87"/><path class="cls-1" d="M122.55,70.25c-10,0-18.12,62.75-18.12,86.62s8.11,86.93,18.12,86.93"/><path class="cls-1" d="M110.71,70.25c-5,0-9.06,74.76-9.06,86.7s4,86.7,9.06,86.7"/></svg>