<?xml version="1.0" encoding="UTF-8"?>
<svg id="Layer_2" data-name="Layer 2" xmlns="http://www.w3.org/2000/svg" viewBox="0 0 682.67 16.99">
  <defs>
    <style>
      .cls-1 {
        fill: none;
        stroke: #bfbfac;
        stroke-miterlimit: 10;
        stroke-width: .45px;
      }
    </style>
  </defs>
  <g id="Layer_1-2" data-name="Layer 1">
    <g>
      <g>
        <line class="cls-1" x1="0" y1="8.49" x2="325.42" y2="8.49"/>
        <line class="cls-1" x1="357.24" y1="8.49" x2="682.67" y2="8.49"/>
      </g>
      <g>
        <g>
          <g>
            <path class="cls-1" d="M325.42,8.49c0-1.6,1.3-2.93,2.9-2.97l2.29-.05.02-2.29c.01-1.63,1.34-2.95,2.97-2.95h.57"/>
            <path class="cls-1" d="M334.17.23c1.63,0,2.96,1.32,2.97,2.95l.02,2.29,2.29.05c1.6.04,2.9,1.37,2.9,2.97"/>
            <path class="cls-1" d="M330.61,5.47h0c.09-1.68,1.48-3,3.17-3h.2c1.69,0,3.08,1.32,3.17,3h0"/>
          </g>
          <g>
            <path class="cls-1" d="M342.35,8.49c0,1.6-1.3,2.93-2.9,2.97l-2.29.05-.02,2.29c-.01,1.63-1.34,2.95-2.97,2.95h-.57"/>
            <path class="cls-1" d="M333.6,16.76c-1.63,0-2.96-1.32-2.97-2.95l-.02-2.29-2.29-.05c-1.6-.04-2.9-1.37-2.9-2.97"/>
            <path class="cls-1" d="M337.16,11.52h0c-.09,1.68-1.48,3-3.17,3h-.2c-1.69,0-3.08-1.32-3.17-3h0"/>
          </g>
        </g>
        <g>
          <g>
            <path class="cls-1" d="M340.32,8.49c0-1.6,1.3-2.93,2.9-2.97l2.29-.05.02-2.29c.01-1.63,1.34-2.95,2.97-2.95h.57"/>
            <path class="cls-1" d="M349.06.23c1.63,0,2.96,1.32,2.97,2.95l.02,2.29,2.29.05c1.6.04,2.9,1.37,2.9,2.97"/>
            <path class="cls-1" d="M345.51,5.47h0c.09-1.68,1.48-3,3.17-3h.2c1.69,0,3.08,1.32,3.17,3h0"/>
          </g>
          <g>
            <path class="cls-1" d="M357.25,8.49c0,1.6-1.3,2.93-2.9,2.97l-2.29.05-.02,2.29c-.01,1.63-1.34,2.95-2.97,2.95h-.57"/>
            <path class="cls-1" d="M348.5,16.76c-1.63,0-2.96-1.32-2.97-2.95l-.02-2.29-2.29-.05c-1.6-.04-2.9-1.37-2.9-2.97"/>
            <path class="cls-1" d="M352.05,11.52h0c-.09,1.68-1.48,3-3.17,3h-.2c-1.69,0-3.08-1.32-3.17-3h0"/>
          </g>
        </g>
      </g>
    </g>
  </g>
</svg>