<?xml version="1.0" encoding="UTF-8"?>
<svg id="Layer_2" data-name="Layer 2" xmlns="http://www.w3.org/2000/svg" viewBox="0 0 32.46 32.46">
  <defs>
    <style>
      .cls-1 {
        fill: #ae3111;
        stroke-width: 0px;
      }
    </style>
  </defs>
  <g id="Layer_1-2" data-name="Layer 1">
    <g>
      <path class="cls-1" d="M16.23,3c7.29,0,13.23,5.93,13.23,13.23s-5.93,13.23-13.23,13.23S3,23.52,3,16.23,8.93,3,16.23,3M16.23,0C7.27,0,0,7.27,0,16.23s7.27,16.23,16.23,16.23,16.23-7.27,16.23-16.23S25.19,0,16.23,0h0Z"/>
      <g>
        <path class="cls-1" d="M18.56,18.51c-4.53,4.53-10.49,5.93-10.49,5.93,0,0,1.4-5.95,5.93-10.49,4.53-4.53,10.49-5.93,10.49-5.93,0,0-1.4,5.95-5.93,10.49Z"/>
        <path class="cls-1" d="M14,18.51c-4.53-4.53-5.93-10.49-5.93-10.49,0,0,5.95,1.4,10.49,5.93,4.53,4.53,5.93,10.49,5.93,10.49,0,0-5.95-1.4-10.49-5.93Z"/>
      </g>
    </g>
  </g>
</svg>