<?xml version="1.0" encoding="UTF-8"?>
<svg id="Layer_2" data-name="Layer 2" xmlns="http://www.w3.org/2000/svg" xmlns:xlink="http://www.w3.org/1999/xlink" viewBox="0 0 144 285">
  <defs>
    <style>
      .cls-1, .cls-2, .cls-3 {
        fill: none;
        stroke-miterlimit: 10;
        stroke-width: .75px;
      }

      .cls-1, .cls-3 {
        stroke: #d6d6cc;
      }

      .cls-2 {
        stroke: #e3e3dc;
      }

      .cls-4 {
        fill: #eeeeea;
      }

      .cls-4, .cls-5 {
        stroke-width: 0px;
      }

      .cls-3 {
        filter: url(#drop-shadow-2);
      }

      .cls-5 {
        fill: #b6ad33;
        filter: url(#drop-shadow-1);
      }
    </style>
    <filter id="drop-shadow-1" filterUnits="userSpaceOnUse">
      <feOffset dx=".75" dy="1.5"/>
      <feGaussianBlur result="blur" stdDeviation=".75"/>
      <feFlood flood-color="#000" flood-opacity=".25"/>
      <feComposite in2="blur" operator="in"/>
      <feComposite in="SourceGraphic"/>
    </filter>
    <filter id="drop-shadow-2" filterUnits="userSpaceOnUse">
      <feOffset dx="2.82" dy="4.93"/>
      <feGaussianBlur result="blur-2" stdDeviation="3.52"/>
      <feFlood flood-color="#000" flood-opacity=".25"/>
      <feComposite in2="blur-2" operator="in"/>
      <feComposite in="SourceGraphic"/>
    </filter>
  </defs>
  <g id="Layer_1-2" data-name="Layer 1">
    <g>
      <rect class="cls-5" x="1.96" y="1.54" width="138.01" height="278.44" rx="69" ry="69"/>
      <rect class="cls-3" x="7.08" y="6.45" width="127.77" height="268.63" rx="63.88" ry="63.88"/>
      <g>
        <path class="cls-4" d="M54.84,24.06l.95-6.07.76-.21,3.95,4.72-.81.22-3.56-4.36.31-.09-.81,5.57-.79.22ZM55.51,22.42l.04-.67,3.04-.84.39.55-3.47.96Z"/>
        <path class="cls-4" d="M62.08,22.22l-.75-5.55,2.49-.34c.64-.09,1.15-.02,1.53.18.38.21.6.54.66.98.04.3,0,.56-.1.79-.11.22-.27.41-.48.55s-.45.23-.71.27l.11-.26c.32-.04.6-.03.86.05.26.08.47.21.64.41s.28.45.32.77c.06.48-.06.87-.39,1.18s-.83.51-1.54.61l-2.65.36ZM62.79,21.47l1.82-.25c.44-.06.76-.18.98-.36s.3-.43.25-.75c-.04-.32-.19-.54-.44-.66-.25-.12-.6-.15-1.04-.09l-1.89.26-.09-.64,1.7-.23c.4-.05.7-.17.91-.35.2-.18.28-.42.24-.71s-.18-.5-.42-.62-.56-.15-.96-.1l-1.63.22.58,4.27Z"/>
        <path class="cls-4" d="M71.37,21.54c-.43,0-.82-.08-1.19-.23-.36-.15-.68-.35-.94-.61s-.47-.57-.62-.91-.22-.73-.21-1.14c0-.41.08-.79.23-1.13s.36-.65.63-.9c.27-.26.58-.46.95-.6.36-.14.76-.21,1.19-.21.43,0,.82.08,1.18.22s.67.35.94.61.47.57.61.92.21.73.21,1.14c0,.42-.08.8-.23,1.14s-.36.65-.63.9c-.27.26-.58.45-.95.59-.36.14-.76.21-1.19.2ZM71.37,20.83c.31,0,.6-.05.87-.15s.5-.25.69-.45c.2-.19.35-.42.46-.68s.17-.54.17-.85c0-.31-.05-.59-.16-.85s-.26-.49-.45-.69c-.19-.2-.42-.35-.68-.46-.26-.11-.55-.16-.87-.17-.31,0-.6.05-.86.15-.27.1-.5.25-.7.45-.2.2-.35.42-.46.68-.11.26-.17.54-.17.85,0,.31.05.59.16.86.11.26.26.49.46.69.2.2.42.35.69.46.26.11.55.17.86.17Z"/>
        <path class="cls-4" d="M78.58,22.12c-.73-.11-1.27-.41-1.62-.89-.35-.48-.47-1.12-.34-1.92l.49-3.15.79.12-.48,3.11c-.1.62-.03,1.09.2,1.42.23.33.59.53,1.08.6.5.08.91,0,1.22-.25.32-.24.52-.67.62-1.29l.48-3.12.77.12-.49,3.15c-.12.8-.42,1.38-.9,1.73-.48.35-1.08.47-1.82.36Z"/>
        <path class="cls-4" d="M84.28,23.28l1.35-4.71-1.85-.53.19-.67,4.45,1.28-.19.67-1.85-.53-1.35,4.71-.76-.22Z"/>
      </g>
      <line class="cls-2" x1="70.61" y1="69.69" x2="70.61" y2="91.99"/>
      <line class="cls-1" x1="70.61" y1="111.59" x2="70.61" y2="133.89"/>
      <line class="cls-1" x1="70.61" y1="153.99" x2="70.61" y2="176.29"/>
      <line class="cls-1" x1="70.61" y1="195.21" x2="70.61" y2="217.52"/>
      <line class="cls-1" x1="70.61" y1="69.72" x2="70.61" y2="92.03"/>
    </g>
  </g>
</svg>