<?xml version="1.0" encoding="UTF-8"?>
<svg id="Layer_2" data-name="Layer 2" xmlns="http://www.w3.org/2000/svg" viewBox="0 0 37.73 34.18">
  <defs>
    <style>
      .cls-1 {
        fill: #ae3111;
        stroke-width: 0px;
      }
    </style>
  </defs>
  <g id="Layer_1-2" data-name="Layer 1">
    <g>
      <path class="cls-1" d="M29.82,34.18c-1.77-3.22-3.14-6.6-4.12-10.16.06,0,.11,0,.16,0,1.76,0,3.51,0,5.27,0,.06,0,.12,0,.18-.02.31-.08.45-.3.32-.6-.1-.23-.22-.46-.38-.65-.41-.51-.91-.93-1.49-1.26-.22-.12-.45-.22-.71-.23-.18,0-.34.04-.47.16-.41.35-.83.7-1.23,1.06-.19.17-.39.25-.65.24-.4-.02-.81,0-1.21,0-.09,0-.14-.02-.16-.12-.23-1.19-.48-2.38-.71-3.57-.05-.26-.08-.52-.13-.81.08,0,.14,0,.21,0,2.51,0,5.03,0,7.54,0,.13,0,.26-.02.38-.06.38-.14.55-.59.32-.92-.2-.29-.45-.57-.71-.82-.67-.64-1.38-1.26-2.2-1.7-.26-.14-.54-.24-.82-.33-.24-.07-.49-.03-.67.15-.28.27-.54.55-.8.85-.08.09-.15.12-.27.12-5.65,0-11.29,0-16.94,0-1.99,0-3.9.37-5.76,1.08-.14.05-.27.11-.45.18,1.49.52,2.5,1.49,3.08,2.96.11-.12.19-.23.29-.32.71-.67,1.55-1.05,2.52-1.18.1-.01.2-.01.31-.01.7,0,1.41,0,2.11,0h.18c-.04.28-.07.54-.12.79-.23,1.19-.48,2.38-.71,3.57-.02.11-.07.14-.18.14-1.39,0-2.79,0-4.18,0-.13,0-.18.05-.24.17-.15.34-.32.66-.48.99-.02.04-.05.08-.08.14,1.61,0,3.19,0,4.79,0-.96,3.48-2.29,6.78-4,9.95-2.35-1.77-4.21-3.94-5.53-6.55C.12,23.57-.45,19.53.35,15.32,1.97,6.73,9.21.63,17.48.05c9.48-.67,17.29,5.57,19.54,13.68,2.29,8.23-1.2,16.25-7.2,20.45Z"/>
      <path class="cls-1" d="M17.34,20.45c0-.68,0-1.35,0-2.03,0-.18.05-.24.24-.24.79,0,1.57,0,2.36,0,.18,0,.24.05.24.24,0,1.35,0,2.7,0,4.05,0,.18-.06.24-.24.24-.79,0-1.57,0-2.36,0-.18,0-.24-.06-.24-.24,0-.68,0-1.35,0-2.03Z"/>
    </g>
  </g>
</svg>