<svg id="Layer_1" data-name="Layer 1" xmlns="http://www.w3.org/2000/svg" viewBox="0 0 88.87 85.13"><defs><style>.cls-1{fill:#1e1e29;}</style></defs><path class="cls-1" d="M42.42,51.14l4.54-10h1.42l4.56,10H51.43l-4-9.22H48L43.9,51.14Zm1.93-2.51.39-1.14h5.65l.41,1.14Z"/><path class="cls-1" d="M43.4,44.26,44,43a9.33,9.33,0,0,1-1.18-.85,13.74,13.74,0,0,0,2.95-4.94h1.91V36.09H42.46V34H41.24v2.1H36.13v1.15H38a14.25,14.25,0,0,0,2.88,5,13.11,13.11,0,0,1-4.93,2.38,6.58,6.58,0,0,1,.75,1.17,14.91,14.91,0,0,0,5.09-2.66A11.23,11.23,0,0,0,43.4,44.26Zm-4.11-7h5.05a11.24,11.24,0,0,1-2.5,4.1A11.65,11.65,0,0,1,39.29,37.24Z"/></svg>