<svg id="Layer_1" data-name="Layer 1" xmlns="http://www.w3.org/2000/svg" viewBox="0 0 250.95 318.1"><defs><style>.cls-1{fill:#b6ad33;}.cls-2{fill:none;stroke:#e3e3dc;stroke-linejoin:round;stroke-width:1.49px;}</style></defs><path class="cls-1" d="M163.17,57.53H87.78A15.66,15.66,0,0,0,72.12,73.09a15.67,15.67,0,0,0-15.3,15.65V229.36A15.67,15.67,0,0,0,72.12,245a15.66,15.66,0,0,0,15.66,15.55h75.39A15.66,15.66,0,0,0,178.83,245a15.66,15.66,0,0,0,15.29-15.66V88.74a15.66,15.66,0,0,0-15.29-15.65,15.66,15.66,0,0,0-15.66-15.56Z"/><path class="cls-2" d="M163.17,64.47a8.73,8.73,0,0,1,8.72,8.66l.05,6.73,6.73.16a8.79,8.79,0,0,1,8.52,8.72V229.36a8.78,8.78,0,0,1-8.52,8.72l-6.73.16-.05,6.73a8.74,8.74,0,0,1-8.72,8.67H87.78A8.76,8.76,0,0,1,79.05,245l0-6.73-6.73-.16a8.77,8.77,0,0,1-8.52-8.72V88.74A8.78,8.78,0,0,1,72.28,80L79,79.86l0-6.73a8.75,8.75,0,0,1,8.73-8.66h75.39"/><path class="cls-2" d="M79,79.86h0a9.31,9.31,0,0,1,9.3-8.8h74.33a9.31,9.31,0,0,1,9.3,8.8h0"/><path class="cls-2" d="M171.94,238.94h0a9.31,9.31,0,0,1-9.3,8.8H88.31a9.31,9.31,0,0,1-9.3-8.8h0"/></svg>