<?xml version="1.0" encoding="UTF-8"?>
<svg id="Layer_2" data-name="Layer 2" xmlns="http://www.w3.org/2000/svg" viewBox="0 0 313.54 106.4">
  <defs>
    <style>
      .cls-1 {
        fill: #1e1e29;
        stroke-width: 0px;
      }
    </style>
  </defs>
  <g id="Layer_1-2" data-name="Layer 1">
    <g>
      <g>
        <path class="cls-1" d="M177.51,95.78c-.33.1-.67.21-.92.43-.25.23-.4.62-.24.92.91.25,1.97-.44,2.1-1.38l-.14-.22c-.27.08-.54.16-.8.24Z"/>
        <path class="cls-1" d="M161.92,5.69c.16.06.38,0,.44-.08.06-.08.02-.18-.03-.27-.23-.47-.47-.94-.71-1.41-.21.07-.35.2-.37.33l.06.06c.09.46.29.93.6,1.38Z"/>
        <path class="cls-1" d="M163.92,57.78c-.47-.46-.94-.91-1.41-1.37-.63,1.39-.72,3.32-.22,4.83.22-.42.33-.97.29-1.5.16-.01.32-.03.48-.04l-.18-.82c.42-.14.8-.54,1.04-1.1Z"/>
        <path class="cls-1" d="M176.17,1.57c-1.98-.04-3.43-.03-5.42-.04-.92,0-2.23.02-3.32.06l.84.06c-.73.01-1.46.02-2.19.03.37.19.78.33,1.19.38-.49.01-1.32.04-1.32.04,0,0-.32-.11-.62-.31-.11.04-.23-.02-.33-.09-.13,0-.26,0-.39,0,.11.08.23.16.34.25-.51-.13-1.01-.35-1.44-.65l.78.06c-.22-.06-.45-.09-.68-.11-.12-.01-.24-.03-.35.02-.36.14.02.88-.55.78,0-.01-.06-.2-.03-.21-.31.05-.6-.35-.81-.54.03.02-.09.2-.11.22-.06-.04-.2-.06-.24-.09-.02.05-.03.11-.04.16-.16.93.74,2.02,1.01,2.85.43,1.29.79,2.6,1.07,3.92.58,2.65.87,5.37.87,8.09v11.9c0,2.06.04,4.13,0,6.19-.01.82-.04,1.6-.03,2.42.22-.03.41.08.51.26-.64-.03-1.38,1.2-.75,1.59.18.11.37.12.56.02-.07.94-.21,2.02-.08,2.96.19,1.31.44.38,1.17,1.07-.21.08-.41.16-.62.24.21.26.19.64.23.98s.24.73.58.73c-.17.06-.34.12-.51.18.39-.14.3,1.75.29,1.83-.44-.26-.77-.69-.91-1.18-.29,2.34-.49,4.48-.41,6.82.05,1.4.16,2.9-.05,4.29-.07.49.23.79.35,1.23.19.69.22,1.48.36,2.19-.12.03-.25.02-.36-.03.03-.53,0-1.06-.08-1.58.06.91-.27,1.81-.27,2.74,0,1.13,0,2.26,0,3.38v11.18c0,4.39-3.01,8.5-8.91,8.5-4.11,0-8.5-4.11-8.5-8.5,0-1.39-.16-4.96-.16-4.96v-.9s-.74-.63-.74-.63l.65-.96v-1.46s.25-2.22.25-2.29c-.07-1.35,0-2.74,0-4.1v-24.1c0-.89-.03-1.78,0-2.66.02-.63.11-1.11-.72-1.19.22-.07.44-.1.67-.1.07-.57.04-1.16-.08-1.72-.14.05-.27.11-.41.16.2-.35.25-.78.13-1.17-.06-.18-.15-.36-.1-.54.1.11.28.05.37-.06.08-.12.09-.27.09-.41.04-4.1.06-8.22.06-12.33,0-5.11,1.03-10.16,3.01-14.86h-25.76l.2.52c1.68,4.37,2.54,9.01,2.54,13.69,0,10.49,0,31.49,0,31.49,0,0,.27,2.33.31,3.9l-.22,1.3s.17.48.16.72c-.02.56.02,1.65.02,1.65.17.37.48.67.84.84-.42,0-.84-.21-1.1-.54.35.7-.02,2.57-.02,3.34v17.38c0,6.09,2.06,12.07,5.72,16.93,1.78,2.36,3.77,4.65,6.09,6.5,1.19.96,5.68,2.7,5.68,2.7l1.22.28s.37-.7.76-1.68c.05.29.07,1.46.1,1.75.12,0,.24.02.36.03-.07.26.1.53.34.67,2.98.99,5.81,1.32,8.25,1.32,3.4,0,6.81-.53,10.04-1.57,1.45-.47,2.56-1.01,3.77-1.86.94-.66,2.81-.59,3.23-1.85.08-.25.13-.57.37-.65.29-.1.61.24.89.11.39-.19,1.14-.8,1.47-1.1.93-.88.68-2.18,2.41-1.96.07-.56-.08-1.21-.41-1.69-.16-.23-.37-.42-.49-.67-.13-.28-.1-.54.12-.74.32.27,1.64,1.15,1.64,1.15,0,0,.84-.24.95.02.91-.94,1.31-2.18,2.05-3.24.54-.78,1.08-1.44,1.51-2.33,1.83-3.77,2.74-7.93,2.74-12.12V15.8c0-4.68.86-9.32,2.54-13.69l.2-.52-2.65.19s-5.42-.12-9.73-.21ZM143.85,14.5c-1.05-.18-1.39-1.14-1.39-1.14l-.08-.04c1.2.12,1.96.72,1.47,1.18ZM145.02,14.85c-.18-.07-.35-.15-.51-.26l.23-.44c.17.09.31.25.36.44h.01c-.03.09-.06.18-.09.26ZM165.16,56.8c-.24-.24-.22-.63-.17-.97.03-.26.23-.62.46-.49.11.28.21.57.32.85l.06.31c.13.31-.43.53-.67.29ZM168.42,41.7c-.14-.18-.27-.36-.41-.54l.42.17-1-1.19c.34-.27.78-.51,1.28-.7.45.57.91,1.14,1.36,1.71-.63.1-1.2.29-1.64.55Z"/>
        <path class="cls-1" d="M165,1.7c.08,0,.15,0,.23,0,.04.03.07.06.11.09.02-.03.18-.07.45-.09.1,0,.19,0,.29,0-.01,0-.02-.01-.04-.02.37-.03.85-.06,1.39-.08l-3.14-.23c.21.05.41.13.59.26.04.03.08.06.12.08Z"/>
      </g>
      <g>
        <path class="cls-1" d="M41.67,82.02c-.14-.09-.34.02-.41.17-.04.08-.06.17-.08.26.22-.14.49-.35.49-.43Z"/>
        <path class="cls-1" d="M41.34,84.63c.37-.79.55-1.66.54-2.53l-.9,1.75c-.02-.06-.05-.12-.08-.17,0,.02,0,.04-.01.06-.04.36.1.79.45.9Z"/>
        <path class="cls-1" d="M39.94,85.3l.48-.18.18-.21c.07-.06.11-.17.09-.26-.24-.09-.5-.13-.76-.11,0,.25,0,.51,0,.76Z"/>
        <path class="cls-1" d="M41.5,77.88s0-.06,0-.09c-.01-.01-.02-.02-.03-.04l.04.13Z"/>
        <path class="cls-1" d="M41.73,75.23c.03.71.07,1.42.1,2.13.08.07.17.13.28.14.23.04.47-.05.69-.14-.1-.39-.2-.77-.3-1.16-.11-.43-.32-.95-.77-.98Z"/>
        <path class="cls-1" d="M53.72,1.57c.56.15,1.04.17,1.48.55-.28.22-1.19-.03-1.51.12-.46.22-.45.75-.69,1.26.13-.45-.34-1.08-.34-1.08-.23-.47-.29-.81-.29-.81l-2.96.11s-4.53.18-6.8.2c-3.56.03-7.12.05-10.67.05-11.39,0-22.2-.17-31.94-.47.53,1.95,1.06,3.9,1.59,5.85.49,1.8.98,3.61,1.47,5.41.26.95.5,1.9.77,2.84.16.54.89,1.9.66,2.43.05-.15.16-.29.29-.37.14.63.29,1.26.46,1.88.03.11.07.24.18.28.08.03.17,0,.24.05.05.03.08.09.1.15.09.27.08.58-.03.84-.22-.21-.4-.46-.52-.74.07.24,1.05,3.5.83,3.63l.2-.11c.67-.38,1.19-.84,1.91-1.11.62-.23,1.75-.31,2.27-.64.62-.4.11-.5-.41-.86.09-.03.42-.14.43-.3,0-.07-.03-.13-.06-.19-.09-.19-.1-.42-.02-.62.04.04,1.47,1.42,1.07,1.5,1.01-.2,1.95-.38,2.97-.47.88-.08,1.78-.21,2.66-.21h5.42v8.32c0,2.29.36,4.36.09,6.63-.02.2-.05.4-.03.6-.12-.11-.36-.11-.48.03-.15.17-.15.43-.11.66.04.24.19.55.43.5.06-.2.12-.41.18-.61l.03-.3c.05.19.13.38.19.56.16.5.13,1.07.05,1.57-.16,0-.32-.05-.48-.03.15,2.42,0,4.83-.03,7.26-.03,1.53.11,3.02.04,4.57,0,.22-.01.45.12.63.07.09.17.16.21.26.05.15-.07.3-.14.44-.18.37-.02.99-.04,1.4-.03.77-.23,1.53-.23,2.31,0,2.24.05,4.48.08,6.72.06,4.51.14,9.02.14,13.53v16.89c0,3.93-.88,7.81-2.57,11.35l-.18.37c4.08,0,12.23.21,12.28.21.23,0,3.93-.12,3.93-.12,0,0,.79-.71.39-1.13.62.03,1.25-.39,1.86-.53-.09.21-.24.77-.42.9.1.13.21.26.31.38.56-.25,1.12.1,1.52-.37.03.13.1.4.23.46.05.03.12.21.18.2.62-.08,1.25-.12,1.87-.12.73,0,2.2,0,2.2,0,0,0-.14-.55-.29-.79-.19-.02-.38-.04-.58-.07.26-.2.21-.62.06-.91-1.48-2.75-1.88-6.72-1.88-9.83,0-2.33-.55-5.01-.21-7.25-.22.16-.4.39-.61.54,0-.11-.04-.23-.11-.32-.12.08-.26.13-.4.15-.01-.06,0-.13.04-.18-.23-.11-.37-.37-.35-.63.02-.22.16-.43.15-.65,0-.08-.03-.16-.03-.25,0-.29.28-.48.53-.54.13-.03.24-.04.32-.06.07.07.13.14.19.21.05-.34.2-.66.25-1,.01-.07.02-.15.03-.22-.12.07-.22.13-.27.13-.02,0-.03,0-.05,0-.27-.26-.86-.93-.54-1.37.24-.33.59.72.7.95.08-2.09.08-4.19.09-6.28.02-3.58.02-1.04.03-4.62,0-3.78-.35-7.51-.51-11.2-.27.05-.51.16-.73.33-.05-.15-.34-.74-.34-.74,0,0-2.21-.43-2.46-.48.54,0,2.97.07,3.09-.46.07.2.16.42.34.51.19.1.49-.03.45-.24l.15,2.93v-.08c0-.45-.05-.9-.02-1.35l.13-2.01c-.12-.04-.23-.09-.35-.13.1-.44.01-.92-.23-1.31-.05-.08-.11-.17-.08-.26.02-.08.1-.13.17-.18.85-.6.58-2.66.6-3.54.03-1.44.05-9.01.05-10.45.01-2.81-.01-5.62-.01-8.43v-13.43h5.42c3.8,0,7.52,1,10.81,2.9l.2.11c.27-1,.54-2,.82-3,.26-.95.65-1.95.74-2.93.06-.76.39-1.33.39-1.33,0,0-.21-1.07-.21-1.18,0-.09.04-.17.07-.25.33-.75,1.05-2.2,1.05-2.2,0,0,.52-1.53.72-2.25.41-1.5.82-3,1.22-4.5.41-1.49,1.04-3.07,1.25-4.61-.05.4-9.13-.06-10.15.08ZM13.6,20.72c-.33.08-.68.09-1.01.05v.04c-.19-.03-.37-.06-.56-.1.34-.14.71-.16,1.08-.17.26-.01.53-.02.79-.03-.03.13-.17.19-.3.22ZM24.8,27.35c-.13.07-.27.13-.4.2l-.26.02c-.45-.15-.45-.94,0-1.09.45-.15.93.47.66.87ZM25.86,91.87c-.18.17-.45.21-.69.24-.13.01-.27.03-.38-.03-.12-.06-.19-.22-.11-.33l.48.1c.05-.18.1-.37.22-.51s.33-.21.49-.12c.21.13.17.49,0,.66ZM25.7,26.46c.07-.8.13-1.65,0-2.4-.14-.75-.57-1.31-.9-.92l.07.75c-.23-.8-.41-2.02-.04-2.5.11-.14.24-.17.37-.19.42-.07.85-.15,1.27-.22-.25,1.83-.5,3.66-.75,5.48ZM40.43,56.31s-.04.01-.07,0c-.15-.01-.29-.13-.3-.27-.01-.15.14-.29.28-.25l.05.05.09.39s-.02.06-.05.07ZM2.89,16.08c.04.05.08.1.12.15.64.73.18-.02.48-.11.07-.02.14-.04.21-.07.02,0,.04,0,.05,0,.01,0,.01.02.01.04,0,.08,0,.17.02.25s.09.15.17.16c-.12,0,.2,2.29.24,2.57,0,0-.42-.29-.16.51s.6.73.26.8-.77.4-.98-.46c-.21-.87-.49-1.25-.45-1.48-.25-.27.1-.26-.02-.61-.04-.12-.11-.23-.17-.34-.73-1.46-.9-3.53-1.19-5.12-.35-1.88-.61-3.78-.78-5.68.62,2.21,1.04,4.47,1.25,6.75l.31-.66c.04-.09.34.64.34.72.03.32-.19.55-.21.84-.03.52.19,1.28.52,1.75Z"/>
        <path class="cls-1" d="M52.44,1.35c.16.05,1.25-1.04,1.25-1.04,0,0-1.38-.26-1.58-.28-.57-.05-1.15-.09-1.69.44.59.02,1.73.51,1.73.51,0,0,.18.34.29.37Z"/>
        <path class="cls-1" d="M37.69,105.33h-.51c-.15.02,0,.22.14.26.73.22,1.53.26,2.29.14-.36-.27-.73-.54-1.09-.81-.32.07-.61.22-.83.42Z"/>
      </g>
      <g>
        <path class="cls-1" d="M258.54,67.28c.02-.35.04-.7.06-1.04,0-.08,0-.19-.08-.22-.03-.01-.05,0-.07.03-.03-.5-.17-.98-.43-1.41-.11.52-.22,1.04-.32,1.56l.15.09c.11.4.36.76.7,1.01Z"/>
        <path class="cls-1" d="M256.97,80.69c.03.44.48.76.84.61,0-.25.01-.49.02-.74l-.12-.63c-.37-.09-.77.32-.74.76Z"/>
        <path class="cls-1" d="M281.55,102.28c-.44-.75-.84-1.53-1.19-2.33-.69-1.59-.97-3.21-1.46-4.84-.1.12-.18.25-.24.39-.12-.08-.25-.13-.39-.17.19-.22.42-.4.67-.53-.14.07-.37-3.11-.37-3.42V31.21s-.15-2.02-.08-3.13c.1-1.44-.29-4.32-.29-4.32,0,0-.19-.64-.48-.69.63-.5.77-2.15.77-2.15,0,0-.61-1.37-.29-1.98.11.24.21.48.32.72.01-2.03.05-4.05.05-6.07,0-3.56.63-7.96,2.33-11.12-.2.11-.39.22-.59.34-.04-.1-.07-.21-.11-.31.26-.11.52-.22.78-.33,0-.22-.49-.35-.49-.35l-.91-.14-2.73-.02h-3.31s-6.5.04-6.5.04c0,0,.24.58.63.69-1.34.18-1.81-.33-1.81-.33l-.95-.33-2.27-.11-2.87-.02h-4.25l.17.35c1.69,3.46,2.57,7.27,2.57,11.12,0,2.28-.08,6.85-.08,6.85,0,0,.59.18.71.48,0,0,.23.69.27,1.06.08.68-.02,1.37.07,2.04-.19-.14-.38-.58-.38-.58l-.58,4.8v20.9c0,1.73-.04,3.47-.03,5.2,0,.72.08,1.41-.02,2.12,0-.21.33-.19.52-.1.39.19.77.37,1.16.56l.02.44c-.02-.4-1.45.34-1.57.54-.45.75-.09,1.78-.08,2.59.02,1.46-.1,2.96,0,4.41.17-.25.43-.81.43-.81l.17,2.46s.6,1.42,1.05,2.05c-.5-.21-.96-.52-1.33-.92-.18.4-.02.91.35,1.15-.9-.57-.68,2.7-.68,2.82.01,1.58,0,3.16,0,4.74v17.91c0,3.19-.71,6.34-2.08,9.22l-.66,1.38h27.41c-.32,0-1.24-1.8-1.41-2.09ZM278.65,4.55c.04-.05.09-.08.15-.11.37-.19.74-.38,1.11-.56.17.49-.24,1.05-.73.99l.16.06c-.16.05-.33.11-.49.05-.16-.06-.29-.28-.2-.42ZM277.23,94.26c-.1.32-.41.4-.49.06.13-.82.29-1.62.47-2.4l.05,1.27c.04.36.08.76-.02,1.08ZM259.94,23.32c.1-.14.31-.31.31-.38.01.44.08,1.31.08,1.31l-.2.78.02,2.51-.19,1.6s-.2-1.23-.21-1.39c-.04-.51-.03-1.01-.01-1.52.02-.62.01-1.24.06-1.86.02-.32.03-.64.11-.95,0-.03.03-.06.05-.1Z"/>
        <path class="cls-1" d="M312.27,29.7c-.51-.18-1.01-.35-1.52-.53-.24.11-.44.31-.54.56l.22.02c-.5,1.22-.71,2.56-.6,3.87.12-.22.24-.44.36-.66.45.24.88-.33,1.08-.8.33-.82.67-1.64,1-2.46Z"/>
        <path class="cls-1" d="M310.42,35.77c.09-.53-.28-1.09-.66-.99-.12.38-.11.84.03,1.21l-.28.24c.3.33.81.08.9-.45Z"/>
        <path class="cls-1" d="M288.75,36.22l.11.07c-.14-.12-.18-.31-.28-.46-.1-.15-.45-.11-.45-.11,0,0-.05.23-.02.34.1.37.31,1.12.31,1.12,0,0,.29-.62.34-.96Z"/>
        <path class="cls-1" d="M309.15,91.38l-.09-7.11-.29-.75-1.21-.95s.81-.48.77-.82c0,.26.43.32.59.11.16-.21.11-.77.11-.77,0,0,.12-3.51.12-5.22v-37.18l-.04-3.57-.36.48s.25-1.96.04-2.91c-.05-.21-.1-.42-.05-.63s.26-.39.46-.33c.08-.43-.06-1.5-.06-1.5-.92-.11-1.65-.04-2.56-.14.29-.31,1.29-.61,1.58-.92.36-.39.16-.83.64-.61.01-.59-.19-4.68.08-4.82,0,0-.27.14-.33.3.38-1.02.28-3.93.28-3.93l.45-2.39s-.12-2.76-.12-4.15c0-4.19,1.04-8.31,3.02-12h-26.04l.17.35c1.69,3.46,2.57,7.27,2.57,11.12v17.03c0,1.84.15,3.62.17,5.42.25-.68,1.24-1.34,1.57-1.97,0,.34-.23.68-.25,1.02,0,.12.72.26.62.33-.08.05-1.31.05-1.39.11-.06.05-.08.13-.1.21-.03.15-.24,2.07-.16,2.08-.16-.03-.32-.07-.48-.1.35.07.16,6.69.15,7.34-.03,2.75-.13,5.5-.13,8.25v41.01c0,3.19-.71,6.34-2.08,9.22,0,0-.63,1.33-.66,1.38.16-.34,4.74,0,5.22,0,1.08,0,3.32,0,3.32,0,0,0,.75-.01,1.02-.25.27-.24.1-.68.43-1,.16.2.25.42.31.68.33.1.7.06,1-.1.08-.05.26-.12.26-.12l.64.48s-.21.08-.31.13c1.18.26,15.52.19,15.52.18-2.84-3.73-4.39-8.3-4.39-12.99ZM296.19,83.83c-.77-.17-1.31-.6-1.41-1.06,0,.01,0,.03,0,.04l-.04-.21c0,.06.03.11.04.17,0-.87-.01-1.74-.02-2.61,1.11,1.1,1.61,2.4,1.43,3.68ZM305.03,103.53c-.11-.08-.24-.11-.37-.09h-.2c-.25-.15-.49-.32-.74-.48.42-.17.9-.17,1.32,0,0,.19,0,.37,0,.56ZM307.51,12.9c-.03-.26-.56-.33-.5-.97.04-.49.52-1.18.71-1.61.21-.46.03-1.06.3-1.48-.08-.07-.23-.07-.33-.06.2-.7.89-2.21,1.32-2.74.03.1.03.2.01.31-.23,2.14-.98,3.92-.8,6.07-.19-.04-.34-.22-.37-.46-.15.02-.28.2-.32.38s-.02.37,0,.55ZM307.26,34.23c.05-.24.37-.38.57-.24.07.28.04.58-.08.84l-.34-.02c.04-.2-.02-.42-.15-.58ZM308.51,88.41c-.05,0-.09-.06-.12-.11-.33-.51-.55-1.09-.67-1.68-.04-.13-.07-.27-.07-.41.01.14.04.27.07.41.04.11.08.21.14.31.03-.54.07-1.08.1-1.61,0-.1,0-.17.01-.2,0,.07,0,.13-.01.2.03.39.19,1.2.21,1.33.15,0,.27.11.33.24l-.41-1.94c.35,1.03.54,2.12.56,3.21,0,.12-.04.27-.16.26Z"/>
      </g>
      <g>
        <path class="cls-1" d="M192.6,86.22c.11-.05.23-.05.32-.17.12-.16.13-.48.13-.75,0-.94.04-1.92-.03-2.85-.14.03-.62,1.59-.77,2.03-.21.64-.04,1.44.13,2.12-.01-.19.1-.34.21-.39Z"/>
        <path class="cls-1" d="M226.77,104.04c-.24-.03-.49.05-.73,0l-.22.11c-.05.05-.09.11-.14.16.54-.04,1.1.07,1.61.33-.03-.35-.29-.57-.53-.6Z"/>
        <path class="cls-1" d="M253.55,44.75c-.06-.29-.16-.57-.3-.83-.09-.18-.32-.36-.46-.23-.05.05-.07.13-.08.2-.06.42-.04.86.07,1.28h-.13c.05.25.1.49.15.73-.02-.38.23-.75.58-.89.06-.02.13-.05.16-.1.03-.05.02-.11,0-.16Z"/>
        <path class="cls-1" d="M213.35,23.35c-.16.05-.18.38-.18.62.02.58.04,1.15.06,1.73l.05-.36c-.03-.11.06-.22.14-.2s.18.21.18.21l.07-1.49s-.16-.56-.32-.51Z"/>
        <path class="cls-1" d="M213.4,1.56c.9-.31,1.99.05,2.53.84.03-.18.05-.36.08-.54.95-.12,2.87-.23,2.87-.23l-4.31-.05s-3.55,0-5.26,0c-2.16,0-4.31,0-6.47,0-2.16,0-4.31,0-6.47,0-.65,0-5.92.39-6.11,0,1.8,3.7,2.74,7.76,2.74,11.87,0,.84.38,1.39.38,1.39,0,0-.27,1.35-.18,1.42.07.05.68-.5.77-.5.69.03,1.48.36,2.09.63-.27.4-.66.51-1.07.81-.11.09-.77.38-.77.38l.05.59s.32.36.5.48c-.25.1-.5.2-.75.3.16.33.21.7.16,1.06-.57-.03-1.19,1.05-1.19,1.05,0,0,.02,4.34.02,6.25v33.83c0,3.07,0,6.14,0,9.21,0,1.68.2,3.28.2,4.95.25-.23.5-.46.75-.69.02.44.04.88.06,1.31.37-.02.75.06,1.09.23-.35.23-.85.19-1.23.08-.02,1.13-.87,1.49-.98,2.82-.09,1.08.12,2.26.18,3.34l.53-.02-.17,4.6s.62.56.54.95c-.17-.19-.52-.1-.66.12-.14.22-.14.49-.14.75.03,1.31-.17,2.54-.17,3.85,0,3.93-.88,7.81-2.57,11.35l-.18.37h25.76c-1.98-3.78-3.01-7.99-3.01-12.25v-30.5h6.72s6.27,31.33,6.27,31.33c.42,2.11.59,4.28.48,6.43-.05,1.1-.17,2.21-.36,3.29l-.2,1.29,1.35-.03s.09-.03.13-.02c.1.03.08.18.12.27,0,0,.4.18.4.18.18.08.91-.21.91-.21,0,0-.06-.24.02-.33.19.11.58.33.58.33l.06.04,1.78.18s8.36,0,12.47,0h6.96c-1.28-3.84-2.42-7.72-3.41-11.64l-8.37-32.9s.96-.41.96-.41c2.94-1.26,5.47-3.32,7.34-5.9.94-1.3,1.72-2.71,2.34-4.18.31-.73.59-1.48.82-2.24.23-.76-.12-1.23.08-1.92.05.15.12.3.2.44l.06.14c.31-.65.45-1.28.39-1.84-.07.03-.15.05-.22.07.34-1.22.38-2.48.47-3.77.12-1.59.17-3.18.17-4.77v-7.54c0-8.66-4.67-16.22-11.71-21.04-1.05-.72-2.14-1.37-3.26-1.97-.99-.53-2.51-1.59-3.66-1.56.03.26-.07.53-.27.72.4-.38-1.06-1.36-1.28-1.45-.93-.41-1.99-.65-2.96-.92.04.3,0,.62-.13.9-.57-.31-1.26-.38-1.88-.21.32.02.59.32.58.65-.59-.21-1.35-.36-1.82-.74.26-.65,1.13-.57,1.72-.51,0-.2,0-.4,0-.59-1.74.38-3.57.41-5.34.41-1.14,0-2.54.17-3.9.22M196.62,22.56c-.19.27-.7.26-.81-.05l-.27-.31c-.25-.2-.26-.63-.02-.84.33.01.93.31.93.31,0,0,.36.62.17.9ZM221.5,41.47h-8.5v-14.37c0-.68-.16-1.56-.13-2.23.09-1.77.42-2.09-.74-2.29-.11-.02.62-.56.62-.56l1.01.02c.25-.15.29-.55.52-.68.26-.15,1.1.1,1.1.1,0,0,1.75,0,2.61,0h3.5c3.97,0,8.5,1.37,8.5,8.63v2.88c0,8.09-4.39,8.5-8.5,8.5ZM230.7,103.26c-.27-.09-.56-.22-.83-.13-.16.05-.29.18-.46.23-.14.04-.32-.04-.35-.16-.08-.16-.17-.31-.25-.47.02-.25.29-.42.54-.42.25,0,.49.12.71.23.54.28,1.09.57,1.63.85-.34.02-.67-.03-.99-.13ZM243.15,50.55c-.22.43-.57.26-.74-.28l.14-.57c0-.62.31-1.12.54-.85.25.29.28,1.28.06,1.71ZM193.8,18.81c-.3-.09-.58-.22-.85-.39-.11.52.03,1.09.37,1.5.23-.19.39-.47.45-.77l.04-.34ZM194,65.58c-.12-1.06-.28-2.21-.02-3.19-.08.3.3.92.34,1.26.06.53,0,1.07.07,1.6.08-.07.21-.02.26.07s.05.19.05.29c0,.39,0,.77-.01,1.16.08-.02.15-.04.23-.06.12.09.07.31-.05.39s-.29.08-.45.08c.98.03.69,3.37.67,3.88-.12-.61-.24-1.23-.38-1.83,0,.8.29,2.77-.31,2.94-.09-2.23-.13-4.4-.38-6.6Z"/>
        <path class="cls-1" d="M230.25,1.79c.53.23,1.12.21,1.64-.08-1.3-.82-2.77-1.12-4.18-.85.88.36,1.76.73,2.65,1.09l-.1-.16Z"/>
        <path class="cls-1" d="M231.29,105.11c1.12.25,2.27.38,3.41.4.26,0,.53,0,.77.09.39.13.58.43.73.7-.78.23-1.87.05-2.52-.41-.12-.09-.27-.2-.44-.19-.07,0-.14.03-.2.05-.44.14-1.01-.03-1.5-.2-.05-.08-.1-.16-.15-.24"/>
      </g>
      <g>
        <path class="cls-1" d="M90.84,1.59h-1.78c-1.25,0-2.5.11-3.73.31-.96.16-1.99.6-2.97.58.11.24.06.45-.21.55-.22.08-.47.07-.68-.04-.19.03-.39.06-.53.18-.14.13-.18.38-.03.49-.24.13-.47.26-.71.37.41-1.29-2.58.56-3.02.81-1.25.71-2.44,1.52-3.56,2.41-6.81,5.4-11.69,14.02-11.69,22.83,0,5.87-.17,11.71-.17,17.57.12.02.26-.05.31-.16-.17.45.06,1.47.03,1.99,0,.13-.01.27.02.4.03.13.11.25.15.37.19.49-.11.97-.18,1.45-.11.78-.06,1.62-.09,2.4-.05,1.6-.07,3.2-.09,4.79-.03,3.28,0,6.56,0,9.83v7.13c0,2.83.65,5.66,1.44,8.36.08.27.16.55.17.83,0,.24-.03.5.1.7-.05-.1.11-.2.22-.16.11.04.17.14.26.22.08.07.19.12.26.21.1.14-.03.18-.04.28-.02.16-.06.09,0,.3.05.21.19.45.32.68,0,.75.33,3.06.33,3.06l1.61,1.89s2.12,2.48,3.05,3.86c.07.11.14.18.26.14-.02-.09-.04-.18-.05-.26-.06-.43-.57-1.35-.84-1.66-.4-.46-.79-.36-1.17-.84-1.28-1.64-1.98-3.39-2.7-5.23.81,1.59,1.76,3.12,2.85,4.54.33.44.66.9,1.1,1.23.29.22.82.96,1.15,1.03-.11-.02-.23-.05-.34-.07-.03,0-.06-.01-.09,0-.05.02-.07.07-.07.12,0,.19.24.25.4.35.1.06.18.15.26.24.57.65,1.19,1.23,1.78,1.86.37.39.6.73,1.12.91-.03-.13.09-.92.09-.91.36.5.81.94,1.32,1.29.07-.04.14-.09.21-.13.02.22.24.37.45.41.21.04.65.03.65.03l1.09.88s-1.2-.87-1.81-.62c3.77,3.56,10.08,4.98,15.13,4.98,2.9,0,5.79-.37,8.59-1.12,2.64-.72,5.18-1.78,7.53-3.18,2.26-1.35,4.35-3,6.17-4.9,1.79-1.88,3.32-4,4.53-6.3,1.22-2.32,2.11-4.8,2.63-7.37.22-1.09.32-2.2.5-3.3-.09.09-.17.21-.2.33-.01-.12-.36-.69-.36-.69l.53-.49s0-.26,0-.4c0-.86-.02-1.73-.03-2.59-.03.1-.06.19-.09.29.03-.53.03-1.05.03-1.58.08.06.14.15.17.24-.06-1.57.03-3.18.03-4.75V30.09c0-15.76-12.33-28.5-29.6-28.5ZM73.31,97.19s-1.59-1.96-1.87-2.27c.13.14,1.58,1.05,2.12,1.54l-.25.73ZM83.87,3.33c.16-.15.43-.17.61-.04s.15.59.15.59l-.56.05s-.35-.22-.31-.41l.12-.19ZM101.42,80.03c0,.14-.02.31-.09.38-.08.08-.17-.03-.24-.14-.16-.27-.31-.58-.44-.92l-.07-.1c.31-.9.57-1.86.76-2.88.1,1.21.12,2.44.07,3.66ZM100.54,37.48s-.11,2.15-.11,3.71v26.51c0,2.79.18,5.52.16,8.31,0,.84-.21,1.83-.54,2.61.08-.18.39.59.23.57-.1-.01-.19-.03-.3-.02-.1.42-.4.84-.07,1.24-.39.19-.59.46-.85.81.01-.29.09-.56.18-.83-.31.17-.64.66-.93.92-.54.5-1.13.88-1.75,1.29-1.81,1.2-3.98,1.78-6.14,1.78-4.39,0-8.5-4.11-8.5-8.5,0-1.29-.03-4.78-.25-8.64-.09-1.57-.34-2.15-.34-2.15l.36-.88-.14-9,.12-3.96-.13-1.87.1-1.17-.56-1.51s.27-1.9.6-1.93l.05.57c.2-.14.19-1,.15-1.25-.22-1.53-.08-4.62-.08-4.62,0,0,.1,1.57.1-1.12s0-5.5,0-8.25c0-4.25,4.11-8.63,9.05-8.63,5.34,0,9.46,4.39,9.46,8.63v2.19s.27,1.36.3,3.33c.6-.06,1.12.14,1.65.4.36.18.72.36,1.09.54-.09.05-.79-.1-1.49.11-.73.22-1.44.81-1.44.81ZM106.12,69.86l-.15-.28c-.07-.61.39-1.06.69-.76.29.3.4,1,.37,1.62-.32-.05-.64-.25-.91-.58Z"/>
        <path class="cls-1" d="M82.28,62.08c-.43.42.15,1.25-.12,1.76-.05.09-.16.15-.26.11,0,.62-.08,1.23-.22,1.82.25-.98,1.92-2.6.6-3.68Z"/>
        <path class="cls-1" d="M69.64,97.19c.08.55.17,1.11.25,1.66l.05.05c.6.02,1.2.29,1.62.72-.06-.47.09-.97.41-1.33-.73-.45-1.51-.83-2.32-1.11Z"/>
        <path class="cls-1" d="M116.44,11.26l-.29-.95c.33-.41.58-.19,1.07-.03l1.21-.51c-.93-1.02-3.26-2.48-3.26-2.48,0,0-.1,1.33.17,2.46.17.71.5,1.35,1.09,1.52Z"/>
      </g>
    </g>
  </g>
</svg>