<?xml version="1.0" encoding="UTF-8"?>
<svg id="Layer_2" data-name="Layer 2" xmlns="http://www.w3.org/2000/svg" viewBox="0 0 98.35 78.73">
  <defs>
    <style>
      .cls-1 {
        fill: #ae3111;
        stroke-width: 0px;
      }
    </style>
  </defs>
  <g id="Layer_1-2" data-name="Layer 1">
    <g>
      <g>
        <path class="cls-1" d="M49.17,0c-12.86,0-23.29,10.43-23.29,23.29,0,7.63,3.68,14.4,9.36,18.65,2.05-3.85,3.7-8.1,4.85-12.3h-5.91c.05-.08.08-.12.1-.17.2-.41.41-.81.6-1.23.06-.15.12-.21.29-.21,1.72,0,3.44,0,5.16,0,.13,0,.19-.03.22-.17.29-1.47.59-2.94.88-4.41.06-.32.1-.64.15-.98h-.22c-.87,0-1.74,0-2.61,0-.13,0-.25,0-.38.01-1.19.15-2.24.63-3.11,1.46-.12.11-.23.25-.36.4-.71-1.82-1.96-3.02-3.8-3.66.22-.09.39-.16.56-.22,2.29-.87,4.65-1.33,7.11-1.33,6.97.01,13.94,0,20.91,0,.14,0,.23-.04.33-.15.32-.36.64-.71.99-1.04.23-.23.53-.28.83-.18.35.11.69.23,1.01.4,1.02.54,1.89,1.3,2.72,2.09.32.31.62.64.87,1.01.29.41.08.96-.39,1.14-.15.05-.31.07-.47.07-3.1,0-6.21,0-9.32,0-.08,0-.15,0-.25,0,.05.36.09.68.16,1,.29,1.47.59,2.94.88,4.41.02.12.08.15.2.15.5,0,1-.02,1.49,0,.32.02.57-.09.8-.29.5-.44,1.01-.87,1.52-1.31.17-.14.37-.2.59-.2.32.01.6.12.87.28.71.4,1.32.92,1.83,1.55.19.24.35.52.47.81.15.37-.01.64-.4.74-.07.02-.15.03-.22.03-2.17,0-4.33,0-6.5,0-.06,0-.12,0-.19,0,1.21,4.39,2.9,8.57,5.09,12.54h.18c5.87-4.23,9.7-11.12,9.7-18.91,0-12.86-10.43-23.29-23.29-23.29Z"/>
        <path class="cls-1" d="M47.47,28.05c.97,0,1.94,0,2.92,0,.22,0,.3-.08.3-.3,0-1.67,0-3.34,0-5.01,0-.23-.07-.29-.3-.29-.97,0-1.94,0-2.92,0-.23,0-.29.07-.29.3,0,.83,0,1.67,0,2.5s0,1.67,0,2.5c0,.23.07.3.29.3Z"/>
      </g>
      <g>
        <g>
          <path class="cls-1" d="M55.68,75.4c-.1.03-.21.06-.29.14-.08.07-.12.19-.07.29.29.08.62-.14.66-.43l-.04-.07c-.08.03-.17.05-.25.08Z"/>
          <path class="cls-1" d="M50.79,47.15s.12,0,.14-.03c.02-.03,0-.06,0-.09-.07-.15-.15-.29-.22-.44-.07.02-.11.06-.12.1l.02.02c.03.15.09.29.19.43Z"/>
          <path class="cls-1" d="M51.42,63.49c-.15-.14-.29-.29-.44-.43-.2.44-.23,1.04-.07,1.51.07-.13.1-.3.09-.47.05,0,.1,0,.15-.01l-.06-.26c.13-.04.25-.17.33-.34Z"/>
          <path class="cls-1" d="M55.26,45.85c-.62-.01-1.08,0-1.7-.01-.29,0-.7,0-1.04.02l.26.02c-.23,0-.46,0-.69.01.12.06.24.1.37.12-.15,0-.41.01-.41.01,0,0-.1-.03-.19-.1-.04.01-.07,0-.1-.03-.04,0-.08,0-.12,0,.04.03.07.05.11.08-.16-.04-.32-.11-.45-.2l.25.02c-.07-.02-.14-.03-.21-.03-.04,0-.08,0-.11,0-.11.05,0,.28-.17.24,0,0-.02-.06,0-.07-.1.02-.19-.11-.25-.17,0,0-.03.06-.03.07-.02-.01-.06-.02-.08-.03,0,.02,0,.03-.01.05-.05.29.23.63.32.89.13.4.25.82.34,1.23.18.83.27,1.68.27,2.54v3.73c0,.65.01,1.29,0,1.94,0,.26-.01.5,0,.76.07,0,.13.03.16.08-.2-.01-.43.38-.24.5.06.03.12.04.18,0-.02.3-.07.64-.02.93.06.41.14.12.37.34-.06.02-.13.05-.19.07.07.08.06.2.07.31s.08.23.18.23c-.05.02-.11.04-.16.06.12-.04.09.55.09.57-.14-.08-.24-.22-.29-.37-.09.73-.15,1.41-.13,2.14.01.44.05.91-.02,1.35-.02.15.07.25.11.39.06.22.07.46.11.69-.04,0-.08,0-.11,0,.01-.17,0-.33-.02-.5.02.28-.08.57-.08.86,0,.35,0,.71,0,1.06v3.51c0,1.38-.95,2.67-2.79,2.67-1.29,0-2.67-1.29-2.67-2.67,0-.44-.05-1.55-.05-1.55v-.28s-.23-.2-.23-.2l.2-.3v-.46s.08-.7.08-.72c-.02-.42,0-.86,0-1.28v-7.56c0-.28-.01-.56,0-.84,0-.2.03-.35-.23-.37.07-.02.14-.03.21-.03.02-.18.01-.36-.03-.54-.04.02-.09.03-.13.05.06-.11.08-.25.04-.37-.02-.06-.05-.11-.03-.17.03.03.09.02.11-.02.03-.04.03-.08.03-.13.01-1.29.02-2.58.02-3.87,0-1.6.32-3.19.95-4.66h-8.08l.06.16c.53,1.37.8,2.83.8,4.3,0,3.29,0,9.88,0,9.88,0,0,.08.73.1,1.22l-.07.41s.05.15.05.22c0,.18,0,.52,0,.52.05.11.15.21.26.26-.13,0-.26-.06-.34-.17.11.22,0,.81,0,1.05v5.45c0,1.91.65,3.79,1.79,5.31.56.74,1.18,1.46,1.91,2.04.37.3,1.78.85,1.78.85l.38.09s.12-.22.24-.53c.02.09.02.46.03.55.04,0,.07,0,.11,0-.02.08.03.17.11.21.94.31,1.82.41,2.59.41,1.07,0,2.13-.17,3.15-.49.45-.15.8-.32,1.18-.58.29-.21.88-.18,1.01-.58.03-.08.04-.18.12-.2.09-.03.19.08.28.03.12-.06.36-.25.46-.35.29-.28.21-.68.76-.61.02-.17-.03-.38-.13-.53-.05-.07-.12-.13-.15-.21-.04-.09-.03-.17.04-.23.1.08.51.36.51.36,0,0,.26-.07.3,0,.29-.29.41-.68.64-1.02.17-.25.34-.45.47-.73.57-1.18.86-2.49.86-3.8v-18.84c0-1.47.27-2.92.8-4.3l.06-.16-.83.06s-1.7-.04-3.05-.07ZM45.12,49.91c-.33-.06-.43-.36-.43-.36h-.03c.38.02.61.21.46.36ZM45.49,50.02c-.06-.02-.11-.05-.16-.08l.07-.14c.05.03.1.08.11.14h0s-.02.06-.03.08ZM51.81,63.18c-.08-.08-.07-.2-.05-.3.01-.08.07-.19.14-.15l.1.27.02.1c.04.1-.13.17-.21.09ZM52.83,58.44c-.04-.06-.09-.11-.13-.17l.13.05-.31-.37c.11-.08.24-.16.4-.22.14.18.28.36.43.54-.2.03-.38.09-.52.17Z"/>
          <path class="cls-1" d="M51.75,45.89s.05,0,.07,0c.01,0,.02.02.03.03,0-.01.06-.02.14-.03.03,0,.06,0,.09,0,0,0,0,0-.01,0,.12,0,.27-.02.44-.02l-.98-.07c.07.02.13.04.18.08.01,0,.02.02.04.03Z"/>
        </g>
        <g>
          <path class="cls-1" d="M13.07,71.09s-.11,0-.13.05c-.01.03-.02.05-.02.08.07-.04.15-.11.15-.13Z"/>
          <path class="cls-1" d="M12.97,71.91c.12-.25.17-.52.17-.79l-.28.55s-.01-.04-.03-.05c0,0,0,.01,0,.02-.01.11.03.25.14.28Z"/>
          <path class="cls-1" d="M12.53,72.12l.15-.06.06-.06s.03-.05.03-.08c-.08-.03-.16-.04-.24-.03,0,.08,0,.16,0,.24Z"/>
          <path class="cls-1" d="M13.02,69.79s0-.02,0-.03c0,0,0,0-.01-.01v.04Z"/>
          <path class="cls-1" d="M13.09,68.96c.01.22.02.45.03.67.02.02.05.04.09.05.07.01.15-.02.22-.04-.03-.12-.06-.24-.1-.36-.04-.13-.1-.3-.24-.31Z"/>
          <path class="cls-1" d="M16.85,45.85c.18.05.33.05.46.17-.09.07-.37,0-.47.04-.14.07-.14.23-.22.39.04-.14-.11-.34-.11-.34-.07-.15-.09-.26-.09-.26l-.93.03s-1.42.06-2.13.06c-1.12.01-2.23.02-3.35.02-3.57,0-6.96-.05-10.02-.15.17.61.33,1.22.5,1.83l.46,1.7c.08.3.16.6.24.89.05.17.28.59.21.76.02-.05.05-.09.09-.12.04.2.09.4.14.59,0,.04.02.07.06.09.02,0,.05,0,.08.02.02.01.02.03.03.05.03.09.02.18,0,.26-.07-.06-.13-.15-.16-.23.02.08.33,1.1.26,1.14l.06-.04c.21-.12.37-.26.6-.35.19-.07.55-.1.71-.2.19-.12.04-.16-.13-.27.03,0,.13-.04.13-.09,0-.02-.01-.04-.02-.06-.03-.06-.03-.13,0-.2.01.01.46.45.33.47.32-.06.61-.12.93-.15.28-.02.56-.07.83-.07h1.7v2.61c0,.72.11,1.37.03,2.08,0,.06-.01.13,0,.19-.04-.04-.11-.03-.15,0-.05.05-.05.14-.04.21.01.08.06.17.13.16.02-.06.04-.13.06-.19v-.09c.03.06.05.12.07.18.05.16.04.33.02.49-.05,0-.1-.02-.15,0,.05.76,0,1.52-.01,2.28,0,.48.04.95.01,1.43,0,.07,0,.14.04.2.02.03.05.05.06.08.01.05-.02.09-.04.14-.06.12,0,.31-.01.44,0,.24-.07.48-.07.72,0,.7.01,1.4.02,2.11.02,1.41.04,2.83.04,4.25v5.3c0,1.23-.27,2.45-.8,3.56l-.06.12c1.28,0,3.84.07,3.85.07.07,0,1.23-.04,1.23-.04,0,0,.25-.22.12-.36.2.01.39-.12.58-.17-.03.07-.07.24-.13.28.03.04.06.08.1.12.17-.08.35.03.48-.12,0,.04.03.12.07.15.02,0,.04.06.06.06.19-.03.39-.04.59-.04.23,0,.69,0,.69,0,0,0-.04-.17-.09-.25-.06,0-.12-.01-.18-.02.08-.06.07-.19.02-.29-.47-.86-.59-2.11-.59-3.08,0-.73-.17-1.57-.07-2.27-.07.05-.13.12-.19.17,0-.04-.01-.07-.04-.1-.04.02-.08.04-.13.05,0-.02,0-.04.01-.06-.07-.04-.12-.12-.11-.2,0-.07.05-.13.05-.21,0-.03,0-.05,0-.08,0-.09.09-.15.17-.17.04,0,.07-.01.1-.02.02.02.04.04.06.07.02-.11.06-.21.08-.31,0-.02,0-.05,0-.07-.04.02-.07.04-.08.04,0,0,0,0-.01,0-.09-.08-.27-.29-.17-.43.08-.1.18.23.22.3.03-.66.03-1.31.03-1.97,0-1.12,0-.33,0-1.45,0-1.19-.11-2.36-.16-3.51-.08.01-.16.05-.23.1-.02-.05-.11-.23-.11-.23,0,0-.69-.14-.77-.15.17,0,.93.02.97-.14.02.06.05.13.11.16.06.03.15-.01.14-.08l.05.92v-.03c0-.14-.02-.28,0-.42l.04-.63s-.07-.03-.11-.04c.03-.14,0-.29-.07-.41-.02-.02-.03-.05-.03-.08,0-.03.03-.04.05-.06.27-.19.18-.83.19-1.11,0-.45.01-2.83.02-3.28,0-.88,0-1.76,0-2.64v-4.21h1.7c1.19,0,2.36.31,3.39.91l.06.04c.09-.31.17-.63.26-.94.08-.3.2-.61.23-.92.02-.24.12-.42.12-.42,0,0-.07-.34-.07-.37,0-.03.01-.05.02-.08.1-.24.33-.69.33-.69,0,0,.16-.48.22-.71.13-.47.26-.94.38-1.41.13-.47.33-.96.39-1.44-.02.13-2.86-.02-3.18.02ZM4.27,51.86c-.1.02-.21.03-.32.01h0c-.06,0-.12,0-.18-.02.11-.05.22-.05.34-.05.08,0,.17,0,.25,0,0,.04-.05.06-.09.07ZM7.78,53.94s-.08.04-.13.06h-.08c-.14-.04-.14-.29,0-.34.14-.05.29.15.21.27ZM8.11,74.18c-.06.05-.14.06-.22.07-.04,0-.08,0-.12,0-.04-.02-.06-.07-.04-.1l.15.03c.02-.06.03-.12.07-.16s.1-.07.15-.04c.07.04.05.15,0,.21ZM8.06,53.66c.02-.25.04-.52,0-.75-.04-.24-.18-.41-.28-.29l.02.23c-.07-.25-.13-.63-.01-.79.03-.04.08-.05.12-.06.13-.02.27-.05.4-.07-.08.57-.16,1.15-.24,1.72ZM12.68,63.02s-.01,0-.02,0c-.05,0-.09-.04-.09-.09,0-.05.04-.09.09-.08v.02s.04.12.04.12c0,0,0,.02-.01.02ZM.91,50.41s.02.03.04.05c.2.23.06,0,.15-.04.02,0,.04-.01.06-.02,0,0,.01,0,.02,0,0,0,0,0,0,.01,0,.03,0,.05,0,.08s.03.05.05.05c-.04,0,.06.72.08.81,0,0-.13-.09-.05.16s.19.23.08.25-.24.13-.31-.15-.15-.39-.14-.47c-.08-.09.03-.08,0-.19-.01-.04-.04-.07-.05-.11-.23-.46-.28-1.11-.37-1.61-.11-.59-.19-1.18-.24-1.78.19.69.33,1.4.39,2.12l.1-.21s.11.2.11.23c0,.1-.06.17-.07.26-.01.16.06.4.16.55Z"/>
          <path class="cls-1" d="M16.45,45.79c.05.02.39-.33.39-.33,0,0-.43-.08-.5-.09-.18-.02-.36-.03-.53.14.18,0,.54.16.54.16,0,0,.06.11.09.12Z"/>
          <path class="cls-1" d="M11.82,78.4h-.16s0,.07.05.08c.23.07.48.08.72.04-.11-.09-.23-.17-.34-.26-.1.02-.19.07-.26.13Z"/>
        </g>
        <g>
          <path class="cls-1" d="M81.1,66.47c0-.11.01-.22.02-.33,0-.03,0-.06-.02-.07,0,0-.02,0-.02,0,0-.16-.05-.31-.13-.44-.03.16-.07.33-.1.49l.05.03c.03.13.11.24.22.32Z"/>
          <path class="cls-1" d="M80.6,70.67c.01.14.15.24.26.19,0-.08,0-.15,0-.23l-.04-.2c-.12-.03-.24.1-.23.24Z"/>
          <path class="cls-1" d="M88.31,77.44c-.14-.24-.26-.48-.37-.73-.22-.5-.31-1.01-.46-1.52-.03.04-.06.08-.07.12-.04-.02-.08-.04-.12-.05.06-.07.13-.13.21-.17-.04.02-.12-.98-.12-1.07v-18.87s-.05-.63-.02-.98c.03-.45-.09-1.35-.09-1.35,0,0-.06-.2-.15-.22.2-.16.24-.67.24-.67,0,0-.19-.43-.09-.62.03.08.07.15.1.23,0-.64.02-1.27.02-1.91,0-1.12.2-2.5.73-3.49-.06.04-.12.07-.18.11-.01-.03-.02-.07-.03-.1.08-.03.16-.07.24-.1,0-.07-.15-.11-.15-.11l-.28-.04h-.86s-1.04,0-1.04,0h-2.04s.07.19.2.23c-.42.06-.57-.1-.57-.1l-.3-.1-.71-.04h-.9s-.89,0-1.33,0l.05.11c.53,1.09.81,2.28.81,3.49,0,.72-.03,2.15-.03,2.15,0,0,.18.06.22.15,0,0,.07.22.09.33.02.21,0,.43.02.64-.06-.04-.12-.18-.12-.18l-.18,1.51v6.56c0,.54-.01,1.09,0,1.63,0,.23.03.44,0,.67,0-.07.1-.06.16-.03.12.06.24.12.36.17v.14c0-.13-.45.11-.49.17-.14.24-.03.56-.02.81,0,.46-.03.93,0,1.38.05-.08.14-.26.14-.26l.05.77s.19.45.33.64c-.16-.06-.3-.16-.42-.29-.05.12,0,.29.11.36-.28-.18-.21.85-.21.89,0,.5,0,.99,0,1.49v5.62c0,1-.22,1.99-.65,2.89l-.21.43h8.6c-.1,0-.39-.57-.44-.66ZM87.4,46.79s.03-.03.05-.03c.12-.06.23-.12.35-.18.05.15-.08.33-.23.31l.05.02s-.1.03-.16.02c-.05-.02-.09-.09-.06-.13ZM86.96,74.93c-.03.1-.13.12-.15.02.04-.26.09-.51.15-.75v.4c.03.11.04.24,0,.34ZM81.54,52.68s.1-.1.1-.12c0,.14.02.41.02.41l-.06.24v.79s-.06.5-.06.5c0,0-.06-.38-.07-.44-.01-.16,0-.32,0-.48,0-.19,0-.39.02-.58,0-.1.01-.2.03-.3,0,0,0-.02.02-.03Z"/>
          <path class="cls-1" d="M97.95,54.68c-.16-.06-.32-.11-.48-.17-.08.03-.14.1-.17.17h.07c-.16.39-.22.81-.19,1.22.04-.07.08-.14.11-.21.14.07.28-.1.34-.25.1-.26.21-.51.31-.77Z"/>
          <path class="cls-1" d="M97.37,56.58c.03-.16-.09-.34-.21-.31-.04.12-.03.26,0,.38l-.09.07c.09.1.26.02.28-.14Z"/>
          <path class="cls-1" d="M90.57,56.72l.03.02s-.06-.1-.09-.14c-.03-.05-.14-.03-.14-.03,0,0-.02.07,0,.11.03.12.1.35.1.35,0,0,.09-.19.11-.3Z"/>
          <path class="cls-1" d="M96.97,74.02l-.03-2.23-.09-.23-.38-.3s.25-.15.24-.26c0,.08.13.1.19.03.05-.07.03-.24.03-.24,0,0,.04-1.1.04-1.64v-12.78s-.12.15-.12.15c0,0,.08-.61.01-.91-.01-.06-.03-.13-.02-.2s.08-.12.15-.1c.02-.14-.02-.47-.02-.47-.29-.03-.52-.01-.8-.04.09-.1.4-.19.49-.29.11-.12.05-.26.2-.19,0-.19-.06-1.47.02-1.51,0,0-.08.04-.1.09.12-.32.09-1.23.09-1.23l.14-.75s-.04-.87-.04-1.3c0-1.31.32-2.61.95-3.76h-8.17l.05.11c.53,1.09.81,2.28.81,3.49v5.34c0,.58.05,1.13.05,1.7.08-.21.39-.42.49-.62,0,.11-.07.21-.08.32,0,.04.22.08.19.1-.03.02-.41.01-.43.03-.02.02-.03.04-.03.06,0,.05-.07.65-.05.65-.05-.01-.1-.02-.15-.03.11.02.05,2.1.05,2.3,0,.86-.04,1.72-.04,2.59v12.86c0,1-.22,1.99-.65,2.89,0,0-.2.42-.21.43.05-.11,1.49,0,1.64,0,.34,0,1.04,0,1.04,0,0,0,.24,0,.32-.08.09-.08.03-.21.13-.31.05.06.08.13.1.21.1.03.22.02.31-.03.03-.01.08-.04.08-.04l.2.15s-.07.02-.1.04c.37.08,4.87.06,4.87.06-.89-1.17-1.38-2.6-1.38-4.08ZM92.91,71.66c-.24-.05-.41-.19-.44-.33,0,0,0,0,0,.01v-.06s0,.04,0,.05c0-.27,0-.55,0-.82.35.35.51.75.45,1.15ZM95.68,77.84s-.08-.03-.12-.03h-.06c-.08-.05-.15-.1-.23-.15.13-.05.28-.05.41,0,0,.06,0,.12,0,.17ZM96.46,49.41c0-.08-.18-.1-.16-.31.01-.15.16-.37.22-.51.07-.14,0-.33.09-.46-.03-.02-.07-.02-.1-.02.06-.22.28-.69.41-.86.01.03,0,.06,0,.1-.07.67-.31,1.23-.25,1.91-.06-.01-.11-.07-.12-.14-.05,0-.09.06-.1.12s0,.12,0,.17ZM96.38,56.1c.01-.08.12-.12.18-.08.02.09.01.18-.02.26h-.11c.01-.07,0-.14-.05-.19ZM96.77,73.09s-.03-.02-.04-.03c-.1-.16-.17-.34-.21-.53-.01-.04-.02-.08-.02-.13,0,.04.01.09.02.13.01.03.03.07.05.1.01-.17.02-.34.03-.51,0-.03,0-.05,0-.06,0,.02,0,.04,0,.06,0,.12.06.38.07.42.05,0,.09.03.1.07l-.13-.61c.11.32.17.66.18,1.01,0,.04-.01.09-.05.08Z"/>
        </g>
        <g>
          <path class="cls-1" d="M60.41,72.41s.07-.02.1-.05c.04-.05.04-.15.04-.23,0-.29.01-.6,0-.89-.04,0-.2.5-.24.64-.07.2-.01.45.04.66,0-.06.03-.11.07-.12Z"/>
          <path class="cls-1" d="M71.13,78c-.08-.01-.15.01-.23,0l-.07.04s-.03.03-.04.05c.17-.01.34.02.51.1,0-.11-.09-.18-.17-.19Z"/>
          <path class="cls-1" d="M79.53,59.4c-.02-.09-.05-.18-.09-.26-.03-.06-.1-.11-.15-.07-.02.02-.02.04-.03.06-.02.13-.01.27.02.4h-.04c.02.08.03.15.05.23,0-.12.07-.24.18-.28.02,0,.04-.01.05-.03,0-.02,0-.03,0-.05Z"/>
          <path class="cls-1" d="M66.92,52.69s-.06.12-.06.2c0,.18.01.36.02.54l.02-.11s.02-.07.04-.06.06.07.06.07l.02-.47s-.05-.18-.1-.16Z"/>
          <path class="cls-1" d="M66.94,45.85c.28-.1.62.02.79.26,0-.06.02-.11.03-.17.3-.04.9-.07.9-.07l-1.35-.02s-1.11,0-1.65,0c-.68,0-1.35,0-2.03,0s-1.35,0-2.03,0c-.2,0-1.86.12-1.92,0,.57,1.16.86,2.43.86,3.72,0,.26.12.44.12.44,0,0-.09.42-.06.45.02.02.21-.16.24-.16.22,0,.47.11.66.2-.08.13-.21.16-.34.25-.04.03-.24.12-.24.12v.18s.11.11.17.15c-.08.03-.16.06-.24.1.05.1.07.22.05.33-.18,0-.37.33-.37.33,0,0,0,1.36,0,1.96v10.61c0,.96,0,1.93,0,2.89,0,.53.06,1.03.06,1.55.08-.07.16-.14.24-.22,0,.14.01.27.02.41.12,0,.24.02.34.07-.11.07-.27.06-.39.02,0,.35-.27.47-.31.89-.03.34.04.71.06,1.05h.17s-.05,1.44-.05,1.44c0,0,.19.18.17.3-.05-.06-.16-.03-.21.04-.05.07-.05.15-.04.24,0,.41-.05.8-.05,1.21,0,1.23-.27,2.45-.8,3.56l-.06.12h8.08c-.62-1.19-.95-2.5-.95-3.84v-9.57h2.11s1.97,9.83,1.97,9.83c.13.66.18,1.34.15,2.02-.02.35-.05.69-.11,1.03l-.06.4h.42s.03-.02.04-.02c.03.01.03.06.04.09,0,0,.12.06.13.06.06.03.29-.07.29-.07,0,0-.02-.08,0-.1.06.03.18.1.18.1h.02s.56.07.56.07c0,0,2.62,0,3.91,0h2.18c-.4-1.2-.76-2.42-1.07-3.65l-2.63-10.32s.3-.13.3-.13c.92-.4,1.71-1.04,2.3-1.85.3-.41.54-.85.73-1.31.1-.23.18-.46.26-.7.07-.24-.04-.39.03-.6.02.05.04.09.06.14l.02.04c.1-.2.14-.4.12-.58-.02,0-.05.02-.07.02.11-.38.12-.78.15-1.18.04-.5.05-1,.05-1.5v-2.36c0-2.72-1.46-5.09-3.67-6.6-.33-.22-.67-.43-1.02-.62-.31-.17-.79-.5-1.15-.49,0,.08-.02.17-.08.22.13-.12-.33-.43-.4-.46-.29-.13-.62-.2-.93-.29.01.1,0,.19-.04.28-.18-.1-.39-.12-.59-.06.1,0,.19.1.18.2-.19-.07-.42-.11-.57-.23.08-.2.35-.18.54-.16,0-.06,0-.12,0-.19-.55.12-1.12.13-1.68.13-.36,0-.8.05-1.22.07M61.67,52.44c-.06.09-.22.08-.25-.02l-.09-.1c-.08-.06-.08-.2,0-.26.1,0,.29.1.29.1,0,0,.11.2.05.28ZM69.48,58.37h-2.67v-4.51c0-.21-.05-.49-.04-.7.03-.56.13-.65-.23-.72-.03,0,.19-.18.19-.18h.32c.08-.04.09-.17.16-.21.08-.05.35.03.35.03,0,0,.55,0,.82,0h1.1c1.25,0,2.67.43,2.67,2.71v.9c0,2.54-1.38,2.67-2.67,2.67ZM72.36,77.75c-.09-.03-.18-.07-.26-.04-.05.02-.09.06-.14.07-.04.01-.1-.01-.11-.05-.03-.05-.05-.1-.08-.15,0-.08.09-.13.17-.13.08,0,.15.04.22.07.17.09.34.18.51.27-.11,0-.21,0-.31-.04ZM76.27,61.22c-.07.14-.18.08-.23-.09l.05-.18c0-.2.1-.35.17-.27.08.09.09.4.02.54ZM60.79,51.26c-.09-.03-.18-.07-.27-.12-.03.16,0,.34.11.47.07-.06.12-.15.14-.24v-.11ZM60.85,65.93c-.04-.33-.09-.69,0-1-.02.09.09.29.11.39.02.16,0,.33.02.5.02-.02.06,0,.08.02s.02.06.02.09c0,.12,0,.24,0,.36.02,0,.05-.01.07-.02.04.03.02.1-.02.12s-.09.03-.14.02c.31.01.22,1.06.21,1.22-.04-.19-.08-.38-.12-.57,0,.25.09.87-.1.92-.03-.7-.04-1.38-.12-2.07Z"/>
          <path class="cls-1" d="M72.22,45.92c.17.07.35.06.51-.02-.41-.26-.87-.35-1.31-.27.28.11.55.23.83.34l-.03-.05Z"/>
          <path class="cls-1" d="M72.55,78.33c.35.08.71.12,1.07.13.08,0,.17,0,.24.03.12.04.18.14.23.22-.25.07-.59.02-.79-.13-.04-.03-.08-.06-.14-.06-.02,0-.04,0-.06.02-.14.04-.32,0-.47-.06-.02-.02-.03-.05-.05-.07"/>
        </g>
        <g>
          <path class="cls-1" d="M28.49,45.86h-.56c-.39,0-.78.03-1.17.1-.3.05-.63.19-.93.18.03.07.02.14-.06.17-.07.03-.15.02-.21-.01-.06,0-.12.02-.17.06-.04.04-.06.12-.01.15-.07.04-.15.08-.22.12.13-.4-.81.17-.95.25-.39.22-.76.48-1.12.76-2.14,1.69-3.67,4.4-3.67,7.16,0,1.84-.05,3.67-.05,5.51.04,0,.08-.02.1-.05-.05.14.02.46.01.62,0,.04,0,.08,0,.13.01.04.03.08.05.12.06.15-.03.3-.06.45-.03.24-.02.51-.03.75-.01.5-.02,1-.03,1.5,0,1.03,0,2.06,0,3.08v2.24c0,.89.2,1.78.45,2.62.03.09.05.17.05.26,0,.08-.01.16.03.22-.01-.03.03-.06.07-.05.03.01.05.05.08.07.03.02.06.04.08.07.03.04,0,.06-.01.09,0,.05-.02.03,0,.09.02.07.06.14.1.21,0,.24.1.96.1.96l.51.59s.67.78.96,1.21c.02.03.04.05.08.04,0-.03-.01-.05-.02-.08-.02-.13-.18-.42-.26-.52-.13-.14-.25-.11-.37-.26-.4-.51-.62-1.06-.85-1.64.26.5.55.98.89,1.42.1.14.21.28.34.39.09.07.26.3.36.32-.04,0-.07-.01-.11-.02,0,0-.02,0-.03,0-.02,0-.02.02-.02.04,0,.06.08.08.13.11.03.02.06.05.08.08.18.2.37.38.56.58.12.12.19.23.35.29,0-.04.03-.29.03-.29.11.16.25.3.42.41.02-.01.04-.03.07-.04,0,.07.08.11.14.13.07.01.2,0,.2,0l.34.28s-.38-.27-.57-.19c1.18,1.12,3.16,1.56,4.75,1.56.91,0,1.82-.11,2.69-.35.83-.22,1.63-.56,2.36-1,.71-.42,1.36-.94,1.93-1.54.56-.59,1.04-1.26,1.42-1.98.38-.73.66-1.51.82-2.31.07-.34.1-.69.16-1.04-.03.03-.05.06-.06.1,0-.04-.11-.22-.11-.22l.17-.15s0-.08,0-.12c0-.27,0-.54,0-.81,0,.03-.02.06-.03.09,0-.16.01-.33,0-.49.03.02.04.05.05.08-.02-.49,0-1,0-1.49v-12.05h0c0-4.96-3.87-8.95-9.29-8.95ZM23,75.85s-.5-.61-.59-.71c.04.05.49.33.66.48l-.08.23ZM26.31,46.41s.13-.05.19-.01.05.18.05.18h-.18s-.11-.05-.1-.11l.04-.06ZM31.81,70.47s0,.1-.03.12c-.02.03-.05,0-.07-.04-.05-.09-.1-.18-.14-.29l-.02-.03c.1-.28.18-.58.24-.9.03.38.04.76.02,1.15ZM31.54,57.12s-.03.68-.03,1.16v8.31c0,.88.06,1.73.05,2.61,0,.26-.07.57-.17.82.02-.06.12.19.07.18-.03,0-.06-.01-.09,0-.03.13-.13.26-.02.39-.12.06-.18.14-.27.26,0-.09.03-.18.06-.26-.1.05-.2.21-.29.29-.17.16-.35.28-.55.4-.57.38-1.25.56-1.93.56-1.38,0-2.67-1.29-2.67-2.67,0-.4,0-1.5-.08-2.71-.03-.49-.11-.67-.11-.67l.11-.28-.04-2.82.04-1.24-.04-.59.03-.37-.18-.47s.08-.59.19-.61l.02.18c.06-.04.06-.31.05-.39-.07-.48-.03-1.45-.03-1.45,0,0,.03.49.03-.35s0-1.72,0-2.59c0-1.33,1.29-2.71,2.84-2.71,1.68,0,2.97,1.38,2.97,2.71v.69s.08.43.09,1.05c.19-.02.35.04.52.13.11.06.23.11.34.17-.03.01-.25-.03-.47.03s-.45.25-.45.25ZM33.29,67.27l-.05-.09c-.02-.19.12-.33.22-.24.09.09.12.31.12.51-.1-.02-.2-.08-.28-.18Z"/>
          <path class="cls-1" d="M25.81,64.84c-.14.13.05.39-.04.55-.01.03-.05.05-.08.03,0,.19-.02.38-.07.57.08-.31.6-.82.19-1.16Z"/>
          <path class="cls-1" d="M21.84,75.85c.03.17.05.35.08.52l.02.02c.19,0,.38.09.51.23-.02-.15.03-.3.13-.42-.23-.14-.47-.26-.73-.35Z"/>
          <path class="cls-1" d="M36.52,48.89l-.09-.3c.1-.13.18-.06.34,0l.38-.16c-.29-.32-1.02-.78-1.02-.78,0,0-.03.42.05.77.05.22.16.42.34.48Z"/>
        </g>
      </g>
    </g>
  </g>
</svg>